<mxfile host="app.diagrams.net" modified="2023-03-13T20:20:21.294Z" agent="5.0 (Windows NT 10.0; Win64; x64) AppleWebKit/537.36 (KHTML, like Gecko) Chrome/110.0.0.0 Safari/537.36" etag="gn3gLVXZJO--lViJlsIJ" version="21.0.6" type="github" pages="8">
  <diagram name=" Processo principal motorista" id="Zw3VcSVBOFDGyxubH-WO">
    <mxGraphModel dx="3133" dy="873" grid="1" gridSize="10" guides="1" tooltips="1" connect="1" arrows="1" fold="1" page="0" pageScale="1" pageWidth="850" pageHeight="1100" math="0" shadow="0">
      <root>
        <mxCell id="0" />
        <mxCell id="1" parent="0" />
        <mxCell id="IoP9DKMXarAUDEE_kizK-1" value="Aplicação Pets car" style="swimlane;html=1;startSize=15;fontStyle=0;collapsible=0;horizontal=0;swimlaneLine=1;swimlaneFillColor=#ffffff;strokeWidth=2;whiteSpace=wrap;" vertex="1" parent="1">
          <mxGeometry x="-560" y="950" width="2140" height="370" as="geometry" />
        </mxCell>
        <mxCell id="RTGd9YV2E3_zJElR2hNl-3" style="edgeStyle=orthogonalEdgeStyle;rounded=0;orthogonalLoop=1;jettySize=auto;html=1;exitX=1;exitY=0.5;exitDx=0;exitDy=0;exitPerimeter=0;entryX=0;entryY=0.5;entryDx=0;entryDy=0;entryPerimeter=0;" edge="1" parent="IoP9DKMXarAUDEE_kizK-1" source="RTGd9YV2E3_zJElR2hNl-1" target="RTGd9YV2E3_zJElR2hNl-2">
          <mxGeometry relative="1" as="geometry" />
        </mxCell>
        <mxCell id="RTGd9YV2E3_zJElR2hNl-1" value="" style="points=[[0.145,0.145,0],[0.5,0,0],[0.855,0.145,0],[1,0.5,0],[0.855,0.855,0],[0.5,1,0],[0.145,0.855,0],[0,0.5,0]];shape=mxgraph.bpmn.event;html=1;verticalLabelPosition=bottom;labelBackgroundColor=#ffffff;verticalAlign=top;align=center;perimeter=ellipsePerimeter;outlineConnect=0;aspect=fixed;outline=standard;symbol=general;" vertex="1" parent="IoP9DKMXarAUDEE_kizK-1">
          <mxGeometry x="70" y="175" width="50" height="50" as="geometry" />
        </mxCell>
        <mxCell id="RTGd9YV2E3_zJElR2hNl-2" value="Disponibilizar formulário para preenchimento" style="points=[[0.25,0,0],[0.5,0,0],[0.75,0,0],[1,0.25,0],[1,0.5,0],[1,0.75,0],[0.75,1,0],[0.5,1,0],[0.25,1,0],[0,0.75,0],[0,0.5,0],[0,0.25,0]];shape=mxgraph.bpmn.task;whiteSpace=wrap;rectStyle=rounded;size=10;html=1;container=1;expand=0;collapsible=0;taskMarker=service;" vertex="1" parent="IoP9DKMXarAUDEE_kizK-1">
          <mxGeometry x="470" y="160" width="120" height="80" as="geometry" />
        </mxCell>
        <mxCell id="RTGd9YV2E3_zJElR2hNl-9" value="" style="shape=datastore;html=1;labelPosition=center;verticalLabelPosition=bottom;align=center;verticalAlign=top;" vertex="1" parent="IoP9DKMXarAUDEE_kizK-1">
          <mxGeometry x="675" y="170" width="50" height="55" as="geometry" />
        </mxCell>
        <mxCell id="RTGd9YV2E3_zJElR2hNl-12" value="Logar usuário na aplicação" style="points=[[0.25,0,0],[0.5,0,0],[0.75,0,0],[1,0.25,0],[1,0.5,0],[1,0.75,0],[0.75,1,0],[0.5,1,0],[0.25,1,0],[0,0.75,0],[0,0.5,0],[0,0.25,0]];shape=mxgraph.bpmn.task;whiteSpace=wrap;rectStyle=rounded;size=10;html=1;container=1;expand=0;collapsible=0;taskMarker=service;" vertex="1" parent="IoP9DKMXarAUDEE_kizK-1">
          <mxGeometry x="890" y="145" width="120" height="80" as="geometry" />
        </mxCell>
        <mxCell id="RTGd9YV2E3_zJElR2hNl-14" value="Disponibilizar tela de inicial" style="points=[[0.25,0,0],[0.5,0,0],[0.75,0,0],[1,0.25,0],[1,0.5,0],[1,0.75,0],[0.75,1,0],[0.5,1,0],[0.25,1,0],[0,0.75,0],[0,0.5,0],[0,0.25,0]];shape=mxgraph.bpmn.task;whiteSpace=wrap;rectStyle=rounded;size=10;html=1;container=1;expand=0;collapsible=0;taskMarker=service;" vertex="1" parent="IoP9DKMXarAUDEE_kizK-1">
          <mxGeometry x="1115" y="145" width="120" height="80" as="geometry" />
        </mxCell>
        <mxCell id="RTGd9YV2E3_zJElR2hNl-15" value="Disponibilizar tela de agendamentos" style="points=[[0.25,0,0],[0.5,0,0],[0.75,0,0],[1,0.25,0],[1,0.5,0],[1,0.75,0],[0.75,1,0],[0.5,1,0],[0.25,1,0],[0,0.75,0],[0,0.5,0],[0,0.25,0]];shape=mxgraph.bpmn.task;whiteSpace=wrap;rectStyle=rounded;size=10;html=1;container=1;expand=0;collapsible=0;taskMarker=service;" vertex="1" parent="IoP9DKMXarAUDEE_kizK-1">
          <mxGeometry x="1295" y="145" width="120" height="80" as="geometry" />
        </mxCell>
        <mxCell id="RTGd9YV2E3_zJElR2hNl-21" value="Alterar status da corrida" style="points=[[0.25,0,0],[0.5,0,0],[0.75,0,0],[1,0.25,0],[1,0.5,0],[1,0.75,0],[0.75,1,0],[0.5,1,0],[0.25,1,0],[0,0.75,0],[0,0.5,0],[0,0.25,0]];shape=mxgraph.bpmn.task;whiteSpace=wrap;rectStyle=rounded;size=10;html=1;container=1;expand=0;collapsible=0;taskMarker=service;" vertex="1" parent="IoP9DKMXarAUDEE_kizK-1">
          <mxGeometry x="1505" y="145" width="120" height="80" as="geometry" />
        </mxCell>
        <mxCell id="RTGd9YV2E3_zJElR2hNl-22" value="Salvar status da corrida" style="shape=datastore;html=1;labelPosition=center;verticalLabelPosition=bottom;align=center;verticalAlign=top;" vertex="1" parent="IoP9DKMXarAUDEE_kizK-1">
          <mxGeometry x="1540" y="280" width="50" height="55" as="geometry" />
        </mxCell>
        <mxCell id="RTGd9YV2E3_zJElR2hNl-23" value="" style="dashed=1;dashPattern=8 4;endArrow=blockThin;endFill=1;startArrow=oval;startFill=0;endSize=6;startSize=4;html=1;rounded=0;exitX=0.5;exitY=1;exitDx=0;exitDy=0;exitPerimeter=0;entryX=0.5;entryY=0;entryDx=0;entryDy=0;" edge="1" parent="IoP9DKMXarAUDEE_kizK-1" source="RTGd9YV2E3_zJElR2hNl-21" target="RTGd9YV2E3_zJElR2hNl-22">
          <mxGeometry width="160" relative="1" as="geometry">
            <mxPoint x="1550" y="240" as="sourcePoint" />
            <mxPoint x="1710" y="240" as="targetPoint" />
          </mxGeometry>
        </mxCell>
        <mxCell id="RTGd9YV2E3_zJElR2hNl-24" value="Salvar valor e dados da corrida" style="shape=datastore;html=1;labelPosition=center;verticalLabelPosition=bottom;align=center;verticalAlign=top;" vertex="1" parent="IoP9DKMXarAUDEE_kizK-1">
          <mxGeometry x="1730" y="145" width="50" height="55" as="geometry" />
        </mxCell>
        <mxCell id="IoP9DKMXarAUDEE_kizK-4" value="Motorista" style="swimlane;html=1;startSize=20;fontStyle=0;collapsible=0;horizontal=0;swimlaneLine=1;swimlaneFillColor=#ffffff;strokeWidth=2;whiteSpace=wrap;" vertex="1" parent="1">
          <mxGeometry x="-560" y="510" width="2160" height="380" as="geometry" />
        </mxCell>
        <mxCell id="IoP9DKMXarAUDEE_kizK-59" style="edgeStyle=orthogonalEdgeStyle;rounded=0;orthogonalLoop=1;jettySize=auto;html=1;exitX=1;exitY=0.5;exitDx=0;exitDy=0;exitPerimeter=0;entryX=0;entryY=0.5;entryDx=0;entryDy=0;entryPerimeter=0;" edge="1" parent="IoP9DKMXarAUDEE_kizK-4" source="IoP9DKMXarAUDEE_kizK-22" target="IoP9DKMXarAUDEE_kizK-23">
          <mxGeometry relative="1" as="geometry" />
        </mxCell>
        <mxCell id="IoP9DKMXarAUDEE_kizK-22" value="" style="points=[[0.145,0.145,0],[0.5,0,0],[0.855,0.145,0],[1,0.5,0],[0.855,0.855,0],[0.5,1,0],[0.145,0.855,0],[0,0.5,0]];shape=mxgraph.bpmn.event;html=1;verticalLabelPosition=bottom;labelBackgroundColor=#ffffff;verticalAlign=top;align=center;perimeter=ellipsePerimeter;outlineConnect=0;aspect=fixed;outline=standard;symbol=general;" vertex="1" parent="IoP9DKMXarAUDEE_kizK-4">
          <mxGeometry x="70" y="160" width="50" height="50" as="geometry" />
        </mxCell>
        <mxCell id="IoP9DKMXarAUDEE_kizK-33" style="edgeStyle=orthogonalEdgeStyle;rounded=0;orthogonalLoop=1;jettySize=auto;html=1;exitX=1;exitY=0.5;exitDx=0;exitDy=0;exitPerimeter=0;entryX=0;entryY=0.5;entryDx=0;entryDy=0;entryPerimeter=0;" edge="1" parent="IoP9DKMXarAUDEE_kizK-4" source="IoP9DKMXarAUDEE_kizK-23" target="IoP9DKMXarAUDEE_kizK-31">
          <mxGeometry relative="1" as="geometry" />
        </mxCell>
        <mxCell id="IoP9DKMXarAUDEE_kizK-23" value="Abrir aplicação" style="points=[[0.25,0,0],[0.5,0,0],[0.75,0,0],[1,0.25,0],[1,0.5,0],[1,0.75,0],[0.75,1,0],[0.5,1,0],[0.25,1,0],[0,0.75,0],[0,0.5,0],[0,0.25,0]];shape=mxgraph.bpmn.task;whiteSpace=wrap;rectStyle=rounded;size=10;html=1;container=1;expand=0;collapsible=0;taskMarker=user;" vertex="1" parent="IoP9DKMXarAUDEE_kizK-4">
          <mxGeometry x="180" y="145" width="120" height="80" as="geometry" />
        </mxCell>
        <mxCell id="IoP9DKMXarAUDEE_kizK-44" style="edgeStyle=orthogonalEdgeStyle;rounded=0;orthogonalLoop=1;jettySize=auto;html=1;exitX=1;exitY=0.5;exitDx=0;exitDy=0;exitPerimeter=0;entryX=0;entryY=0.5;entryDx=0;entryDy=0;entryPerimeter=0;" edge="1" parent="IoP9DKMXarAUDEE_kizK-4" source="IoP9DKMXarAUDEE_kizK-24" target="IoP9DKMXarAUDEE_kizK-43">
          <mxGeometry relative="1" as="geometry" />
        </mxCell>
        <mxCell id="IoP9DKMXarAUDEE_kizK-24" value="Inserir usuário e senha" style="points=[[0.25,0,0],[0.5,0,0],[0.75,0,0],[1,0.25,0],[1,0.5,0],[1,0.75,0],[0.75,1,0],[0.5,1,0],[0.25,1,0],[0,0.75,0],[0,0.5,0],[0,0.25,0]];shape=mxgraph.bpmn.task;whiteSpace=wrap;rectStyle=rounded;size=10;html=1;container=1;expand=0;collapsible=0;taskMarker=user;" vertex="1" parent="IoP9DKMXarAUDEE_kizK-4">
          <mxGeometry x="890" y="40" width="120" height="80" as="geometry" />
        </mxCell>
        <mxCell id="IoP9DKMXarAUDEE_kizK-32" style="edgeStyle=orthogonalEdgeStyle;rounded=0;orthogonalLoop=1;jettySize=auto;html=1;exitX=0.5;exitY=0;exitDx=0;exitDy=0;exitPerimeter=0;entryX=0;entryY=0.5;entryDx=0;entryDy=0;entryPerimeter=0;" edge="1" parent="IoP9DKMXarAUDEE_kizK-4" source="IoP9DKMXarAUDEE_kizK-31" target="IoP9DKMXarAUDEE_kizK-24">
          <mxGeometry relative="1" as="geometry" />
        </mxCell>
        <mxCell id="U-UH0uxYgXSQEq4FUmso-4" value="Não" style="edgeLabel;html=1;align=center;verticalAlign=middle;resizable=0;points=[];" vertex="1" connectable="0" parent="IoP9DKMXarAUDEE_kizK-32">
          <mxGeometry x="-0.3278" y="-2" relative="1" as="geometry">
            <mxPoint x="-39" as="offset" />
          </mxGeometry>
        </mxCell>
        <mxCell id="IoP9DKMXarAUDEE_kizK-36" style="edgeStyle=orthogonalEdgeStyle;rounded=0;orthogonalLoop=1;jettySize=auto;html=1;exitX=0.5;exitY=1;exitDx=0;exitDy=0;exitPerimeter=0;entryX=0;entryY=0.5;entryDx=0;entryDy=0;entryPerimeter=0;" edge="1" parent="IoP9DKMXarAUDEE_kizK-4" source="IoP9DKMXarAUDEE_kizK-31" target="IoP9DKMXarAUDEE_kizK-34">
          <mxGeometry relative="1" as="geometry" />
        </mxCell>
        <mxCell id="U-UH0uxYgXSQEq4FUmso-3" value="Sim" style="edgeLabel;html=1;align=center;verticalAlign=middle;resizable=0;points=[];" vertex="1" connectable="0" parent="IoP9DKMXarAUDEE_kizK-36">
          <mxGeometry x="0.223" y="1" relative="1" as="geometry">
            <mxPoint as="offset" />
          </mxGeometry>
        </mxCell>
        <mxCell id="IoP9DKMXarAUDEE_kizK-31" value="Possui Cadastro?" style="points=[[0.25,0.25,0],[0.5,0,0],[0.75,0.25,0],[1,0.5,0],[0.75,0.75,0],[0.5,1,0],[0.25,0.75,0],[0,0.5,0]];shape=mxgraph.bpmn.gateway2;html=1;verticalLabelPosition=bottom;labelBackgroundColor=#ffffff;verticalAlign=top;align=center;perimeter=rhombusPerimeter;outlineConnect=0;outline=eventNonint;symbol=parallelMultiple;" vertex="1" parent="IoP9DKMXarAUDEE_kizK-4">
          <mxGeometry x="370" y="160" width="50" height="50" as="geometry" />
        </mxCell>
        <mxCell id="IoP9DKMXarAUDEE_kizK-37" style="edgeStyle=orthogonalEdgeStyle;rounded=0;orthogonalLoop=1;jettySize=auto;html=1;exitX=1;exitY=0.5;exitDx=0;exitDy=0;exitPerimeter=0;entryX=0;entryY=0.5;entryDx=0;entryDy=0;entryPerimeter=0;" edge="1" parent="IoP9DKMXarAUDEE_kizK-4" source="IoP9DKMXarAUDEE_kizK-34" target="IoP9DKMXarAUDEE_kizK-35">
          <mxGeometry relative="1" as="geometry" />
        </mxCell>
        <mxCell id="IoP9DKMXarAUDEE_kizK-34" value="Cadastrar usuário e senha" style="points=[[0.25,0,0],[0.5,0,0],[0.75,0,0],[1,0.25,0],[1,0.5,0],[1,0.75,0],[0.75,1,0],[0.5,1,0],[0.25,1,0],[0,0.75,0],[0,0.5,0],[0,0.25,0]];shape=mxgraph.bpmn.task;whiteSpace=wrap;rectStyle=rounded;size=10;html=1;container=1;expand=0;collapsible=0;taskMarker=user;" vertex="1" parent="IoP9DKMXarAUDEE_kizK-4">
          <mxGeometry x="470" y="240" width="120" height="80" as="geometry" />
        </mxCell>
        <mxCell id="U-UH0uxYgXSQEq4FUmso-6" style="edgeStyle=orthogonalEdgeStyle;rounded=0;orthogonalLoop=1;jettySize=auto;html=1;exitX=1;exitY=0.5;exitDx=0;exitDy=0;exitPerimeter=0;entryX=0;entryY=0.5;entryDx=0;entryDy=0;entryPerimeter=0;" edge="1" parent="IoP9DKMXarAUDEE_kizK-4" source="IoP9DKMXarAUDEE_kizK-35">
          <mxGeometry relative="1" as="geometry">
            <mxPoint x="800" y="280" as="targetPoint" />
          </mxGeometry>
        </mxCell>
        <mxCell id="IoP9DKMXarAUDEE_kizK-35" value="Confirmar cadastro" style="points=[[0.25,0,0],[0.5,0,0],[0.75,0,0],[1,0.25,0],[1,0.5,0],[1,0.75,0],[0.75,1,0],[0.5,1,0],[0.25,1,0],[0,0.75,0],[0,0.5,0],[0,0.25,0]];shape=mxgraph.bpmn.task;whiteSpace=wrap;rectStyle=rounded;size=10;html=1;container=1;expand=0;collapsible=0;taskMarker=user;" vertex="1" parent="IoP9DKMXarAUDEE_kizK-4">
          <mxGeometry x="640" y="240" width="120" height="80" as="geometry" />
        </mxCell>
        <mxCell id="IoP9DKMXarAUDEE_kizK-47" style="edgeStyle=orthogonalEdgeStyle;rounded=0;orthogonalLoop=1;jettySize=auto;html=1;exitX=1;exitY=0.5;exitDx=0;exitDy=0;exitPerimeter=0;entryX=0;entryY=0.5;entryDx=0;entryDy=0;entryPerimeter=0;" edge="1" parent="IoP9DKMXarAUDEE_kizK-4" source="IoP9DKMXarAUDEE_kizK-43" target="IoP9DKMXarAUDEE_kizK-46">
          <mxGeometry relative="1" as="geometry" />
        </mxCell>
        <mxCell id="IoP9DKMXarAUDEE_kizK-43" value="Acessar tela inicial" style="points=[[0.25,0,0],[0.5,0,0],[0.75,0,0],[1,0.25,0],[1,0.5,0],[1,0.75,0],[0.75,1,0],[0.5,1,0],[0.25,1,0],[0,0.75,0],[0,0.5,0],[0,0.25,0]];shape=mxgraph.bpmn.task;whiteSpace=wrap;rectStyle=rounded;size=10;html=1;container=1;expand=0;collapsible=0;taskMarker=user;" vertex="1" parent="IoP9DKMXarAUDEE_kizK-4">
          <mxGeometry x="1115" y="40" width="120" height="80" as="geometry" />
        </mxCell>
        <mxCell id="IoP9DKMXarAUDEE_kizK-53" style="edgeStyle=orthogonalEdgeStyle;rounded=0;orthogonalLoop=1;jettySize=auto;html=1;exitX=1;exitY=0.5;exitDx=0;exitDy=0;exitPerimeter=0;entryX=0;entryY=0.5;entryDx=0;entryDy=0;entryPerimeter=0;" edge="1" parent="IoP9DKMXarAUDEE_kizK-4" source="IoP9DKMXarAUDEE_kizK-46" target="IoP9DKMXarAUDEE_kizK-51">
          <mxGeometry relative="1" as="geometry" />
        </mxCell>
        <mxCell id="IoP9DKMXarAUDEE_kizK-46" value="Acessar telas de agendamento" style="points=[[0.25,0,0],[0.5,0,0],[0.75,0,0],[1,0.25,0],[1,0.5,0],[1,0.75,0],[0.75,1,0],[0.5,1,0],[0.25,1,0],[0,0.75,0],[0,0.5,0],[0,0.25,0]];shape=mxgraph.bpmn.task;whiteSpace=wrap;rectStyle=rounded;size=10;html=1;container=1;expand=0;collapsible=0;taskMarker=user;" vertex="1" parent="IoP9DKMXarAUDEE_kizK-4">
          <mxGeometry x="1295" y="40" width="120" height="80" as="geometry" />
        </mxCell>
        <mxCell id="IoP9DKMXarAUDEE_kizK-54" style="edgeStyle=orthogonalEdgeStyle;rounded=0;orthogonalLoop=1;jettySize=auto;html=1;exitX=1;exitY=0.5;exitDx=0;exitDy=0;exitPerimeter=0;entryX=0;entryY=0.5;entryDx=0;entryDy=0;entryPerimeter=0;" edge="1" parent="IoP9DKMXarAUDEE_kizK-4" source="IoP9DKMXarAUDEE_kizK-51" target="IoP9DKMXarAUDEE_kizK-52">
          <mxGeometry relative="1" as="geometry" />
        </mxCell>
        <mxCell id="IoP9DKMXarAUDEE_kizK-51" value="Aceitar o agendamento" style="points=[[0.25,0,0],[0.5,0,0],[0.75,0,0],[1,0.25,0],[1,0.5,0],[1,0.75,0],[0.75,1,0],[0.5,1,0],[0.25,1,0],[0,0.75,0],[0,0.5,0],[0,0.25,0]];shape=mxgraph.bpmn.task;whiteSpace=wrap;rectStyle=rounded;size=10;html=1;container=1;expand=0;collapsible=0;taskMarker=user;" vertex="1" parent="IoP9DKMXarAUDEE_kizK-4">
          <mxGeometry x="1505" y="40" width="120" height="80" as="geometry" />
        </mxCell>
        <mxCell id="RTGd9YV2E3_zJElR2hNl-28" style="edgeStyle=orthogonalEdgeStyle;rounded=0;orthogonalLoop=1;jettySize=auto;html=1;exitX=1;exitY=0.5;exitDx=0;exitDy=0;exitPerimeter=0;entryX=0;entryY=0.5;entryDx=0;entryDy=0;entryPerimeter=0;" edge="1" parent="IoP9DKMXarAUDEE_kizK-4" source="IoP9DKMXarAUDEE_kizK-52" target="RTGd9YV2E3_zJElR2hNl-27">
          <mxGeometry relative="1" as="geometry" />
        </mxCell>
        <mxCell id="IoP9DKMXarAUDEE_kizK-52" value="Preencher os dados de valor da corrida&amp;nbsp;" style="points=[[0.25,0,0],[0.5,0,0],[0.75,0,0],[1,0.25,0],[1,0.5,0],[1,0.75,0],[0.75,1,0],[0.5,1,0],[0.25,1,0],[0,0.75,0],[0,0.5,0],[0,0.25,0]];shape=mxgraph.bpmn.task;whiteSpace=wrap;rectStyle=rounded;size=10;html=1;container=1;expand=0;collapsible=0;taskMarker=user;" vertex="1" parent="IoP9DKMXarAUDEE_kizK-4">
          <mxGeometry x="1695" y="40" width="120" height="80" as="geometry" />
        </mxCell>
        <mxCell id="U-UH0uxYgXSQEq4FUmso-8" value="Logar na aplicação&amp;nbsp;" style="points=[[0.145,0.145,0],[0.5,0,0],[0.855,0.145,0],[1,0.5,0],[0.855,0.855,0],[0.5,1,0],[0.145,0.855,0],[0,0.5,0]];shape=mxgraph.bpmn.event;html=1;verticalLabelPosition=bottom;labelBackgroundColor=#ffffff;verticalAlign=top;align=center;perimeter=ellipsePerimeter;outlineConnect=0;aspect=fixed;outline=standard;symbol=signal;" vertex="1" parent="IoP9DKMXarAUDEE_kizK-4">
          <mxGeometry x="800" y="255" width="50" height="50" as="geometry" />
        </mxCell>
        <mxCell id="U-UH0uxYgXSQEq4FUmso-9" value="Logar na aplicação" style="points=[[0.145,0.145,0],[0.5,0,0],[0.855,0.145,0],[1,0.5,0],[0.855,0.855,0],[0.5,1,0],[0.145,0.855,0],[0,0.5,0]];shape=mxgraph.bpmn.event;html=1;verticalLabelPosition=bottom;labelBackgroundColor=#ffffff;verticalAlign=top;align=center;perimeter=ellipsePerimeter;outlineConnect=0;aspect=fixed;outline=throwing;symbol=signal;" vertex="1" parent="IoP9DKMXarAUDEE_kizK-4">
          <mxGeometry x="610" y="55" width="50" height="50" as="geometry" />
        </mxCell>
        <mxCell id="RTGd9YV2E3_zJElR2hNl-27" value="" style="points=[[0.145,0.145,0],[0.5,0,0],[0.855,0.145,0],[1,0.5,0],[0.855,0.855,0],[0.5,1,0],[0.145,0.855,0],[0,0.5,0]];shape=mxgraph.bpmn.event;html=1;verticalLabelPosition=bottom;labelBackgroundColor=#ffffff;verticalAlign=top;align=center;perimeter=ellipsePerimeter;outlineConnect=0;aspect=fixed;outline=end;symbol=terminate2;" vertex="1" parent="IoP9DKMXarAUDEE_kizK-4">
          <mxGeometry x="1910" y="55" width="50" height="50" as="geometry" />
        </mxCell>
        <mxCell id="RTGd9YV2E3_zJElR2hNl-4" value="" style="dashed=1;dashPattern=8 4;endArrow=blockThin;endFill=1;startArrow=oval;startFill=0;endSize=6;startSize=4;html=1;rounded=0;exitX=0.25;exitY=1;exitDx=0;exitDy=0;exitPerimeter=0;entryX=0.25;entryY=0;entryDx=0;entryDy=0;entryPerimeter=0;" edge="1" parent="1" source="IoP9DKMXarAUDEE_kizK-34" target="RTGd9YV2E3_zJElR2hNl-2">
          <mxGeometry width="160" relative="1" as="geometry">
            <mxPoint x="-330" y="840" as="sourcePoint" />
            <mxPoint x="-170" y="840" as="targetPoint" />
          </mxGeometry>
        </mxCell>
        <mxCell id="RTGd9YV2E3_zJElR2hNl-7" value="Receber requisição&lt;br&gt;&amp;nbsp;de cadastro&amp;nbsp;" style="edgeLabel;html=1;align=center;verticalAlign=middle;resizable=0;points=[];" vertex="1" connectable="0" parent="RTGd9YV2E3_zJElR2hNl-4">
          <mxGeometry x="-0.3679" relative="1" as="geometry">
            <mxPoint as="offset" />
          </mxGeometry>
        </mxCell>
        <mxCell id="RTGd9YV2E3_zJElR2hNl-6" value="" style="dashed=1;dashPattern=8 4;endArrow=blockThin;endFill=1;startArrow=oval;startFill=0;endSize=6;startSize=4;html=1;rounded=0;exitX=0.75;exitY=0;exitDx=0;exitDy=0;exitPerimeter=0;entryX=0.75;entryY=1;entryDx=0;entryDy=0;entryPerimeter=0;" edge="1" parent="1" source="RTGd9YV2E3_zJElR2hNl-2" target="IoP9DKMXarAUDEE_kizK-34">
          <mxGeometry width="160" relative="1" as="geometry">
            <mxPoint x="20" y="1050" as="sourcePoint" />
            <mxPoint x="180" y="1050" as="targetPoint" />
          </mxGeometry>
        </mxCell>
        <mxCell id="RTGd9YV2E3_zJElR2hNl-8" value="Renderizar tela &lt;br&gt;de cadastro" style="edgeLabel;html=1;align=center;verticalAlign=middle;resizable=0;points=[];" vertex="1" connectable="0" parent="RTGd9YV2E3_zJElR2hNl-6">
          <mxGeometry x="-0.1429" y="-1" relative="1" as="geometry">
            <mxPoint as="offset" />
          </mxGeometry>
        </mxCell>
        <mxCell id="RTGd9YV2E3_zJElR2hNl-10" value="" style="dashed=1;dashPattern=8 4;endArrow=blockThin;endFill=1;startArrow=oval;startFill=0;endSize=6;startSize=4;html=1;rounded=0;exitX=0.5;exitY=1;exitDx=0;exitDy=0;exitPerimeter=0;entryX=0.5;entryY=0;entryDx=0;entryDy=0;" edge="1" parent="1" source="IoP9DKMXarAUDEE_kizK-35" target="RTGd9YV2E3_zJElR2hNl-9">
          <mxGeometry width="160" relative="1" as="geometry">
            <mxPoint x="90" y="920" as="sourcePoint" />
            <mxPoint x="250" y="920" as="targetPoint" />
          </mxGeometry>
        </mxCell>
        <mxCell id="RTGd9YV2E3_zJElR2hNl-11" value="Salvar novo&lt;br&gt;&amp;nbsp;usuário no database" style="edgeLabel;html=1;align=center;verticalAlign=middle;resizable=0;points=[];" vertex="1" connectable="0" parent="RTGd9YV2E3_zJElR2hNl-10">
          <mxGeometry x="0.7" y="3" relative="1" as="geometry">
            <mxPoint as="offset" />
          </mxGeometry>
        </mxCell>
        <mxCell id="RTGd9YV2E3_zJElR2hNl-13" value="" style="dashed=1;dashPattern=8 4;endArrow=blockThin;endFill=1;startArrow=oval;startFill=0;endSize=6;startSize=4;html=1;rounded=0;exitX=0.5;exitY=1;exitDx=0;exitDy=0;exitPerimeter=0;" edge="1" parent="1" source="IoP9DKMXarAUDEE_kizK-24" target="RTGd9YV2E3_zJElR2hNl-12">
          <mxGeometry width="160" relative="1" as="geometry">
            <mxPoint x="360" y="750" as="sourcePoint" />
            <mxPoint x="520" y="750" as="targetPoint" />
          </mxGeometry>
        </mxCell>
        <mxCell id="RTGd9YV2E3_zJElR2hNl-17" value="" style="dashed=1;dashPattern=8 4;endArrow=blockThin;endFill=1;startArrow=oval;startFill=0;endSize=6;startSize=4;html=1;rounded=0;exitX=0.5;exitY=1;exitDx=0;exitDy=0;exitPerimeter=0;entryX=0.5;entryY=0;entryDx=0;entryDy=0;entryPerimeter=0;" edge="1" parent="1" source="IoP9DKMXarAUDEE_kizK-43" target="RTGd9YV2E3_zJElR2hNl-14">
          <mxGeometry width="160" relative="1" as="geometry">
            <mxPoint x="620" y="700" as="sourcePoint" />
            <mxPoint x="780" y="700" as="targetPoint" />
          </mxGeometry>
        </mxCell>
        <mxCell id="RTGd9YV2E3_zJElR2hNl-18" value="" style="dashed=1;dashPattern=8 4;endArrow=blockThin;endFill=1;startArrow=oval;startFill=0;endSize=6;startSize=4;html=1;rounded=0;exitX=0.5;exitY=1;exitDx=0;exitDy=0;exitPerimeter=0;entryX=0.5;entryY=0;entryDx=0;entryDy=0;entryPerimeter=0;" edge="1" parent="1" source="IoP9DKMXarAUDEE_kizK-46" target="RTGd9YV2E3_zJElR2hNl-15">
          <mxGeometry width="160" relative="1" as="geometry">
            <mxPoint x="760" y="780" as="sourcePoint" />
            <mxPoint x="920" y="780" as="targetPoint" />
          </mxGeometry>
        </mxCell>
        <mxCell id="RTGd9YV2E3_zJElR2hNl-19" value="" style="dashed=1;dashPattern=8 4;endArrow=blockThin;endFill=1;startArrow=oval;startFill=0;endSize=6;startSize=4;html=1;rounded=0;exitX=0.5;exitY=1;exitDx=0;exitDy=0;exitPerimeter=0;entryX=0.5;entryY=0;entryDx=0;entryDy=0;entryPerimeter=0;" edge="1" parent="1" source="IoP9DKMXarAUDEE_kizK-51">
          <mxGeometry width="160" relative="1" as="geometry">
            <mxPoint x="1010" y="720" as="sourcePoint" />
            <mxPoint x="1005" y="1095" as="targetPoint" />
          </mxGeometry>
        </mxCell>
        <mxCell id="RTGd9YV2E3_zJElR2hNl-25" value="" style="dashed=1;dashPattern=8 4;endArrow=blockThin;endFill=1;startArrow=oval;startFill=0;endSize=6;startSize=4;html=1;rounded=0;exitX=0.5;exitY=1;exitDx=0;exitDy=0;exitPerimeter=0;entryX=0.5;entryY=0;entryDx=0;entryDy=0;" edge="1" parent="1" source="IoP9DKMXarAUDEE_kizK-52" target="RTGd9YV2E3_zJElR2hNl-24">
          <mxGeometry width="160" relative="1" as="geometry">
            <mxPoint x="1160" y="780" as="sourcePoint" />
            <mxPoint x="1320" y="780" as="targetPoint" />
          </mxGeometry>
        </mxCell>
      </root>
    </mxGraphModel>
  </diagram>
  <diagram name="Processo principal user" id="V8qr7EtCLPZlRpFI_M7j">
    <mxGraphModel dx="2900" dy="746" grid="1" gridSize="10" guides="1" tooltips="1" connect="1" arrows="1" fold="1" page="0" pageScale="1" pageWidth="850" pageHeight="1100" math="0" shadow="0">
      <root>
        <mxCell id="qBy8X_8OdxGBCi4Vi1T_-0" />
        <mxCell id="qBy8X_8OdxGBCi4Vi1T_-1" parent="qBy8X_8OdxGBCi4Vi1T_-0" />
        <mxCell id="qBy8X_8OdxGBCi4Vi1T_-2" value="Aplicação Pets car" style="swimlane;html=1;startSize=15;fontStyle=0;collapsible=0;horizontal=0;swimlaneLine=1;swimlaneFillColor=#ffffff;strokeWidth=2;whiteSpace=wrap;" vertex="1" parent="qBy8X_8OdxGBCi4Vi1T_-1">
          <mxGeometry x="-560" y="950" width="2140" height="370" as="geometry" />
        </mxCell>
        <mxCell id="qBy8X_8OdxGBCi4Vi1T_-3" style="edgeStyle=orthogonalEdgeStyle;rounded=0;orthogonalLoop=1;jettySize=auto;html=1;exitX=1;exitY=0.5;exitDx=0;exitDy=0;exitPerimeter=0;entryX=0;entryY=0.5;entryDx=0;entryDy=0;entryPerimeter=0;" edge="1" parent="qBy8X_8OdxGBCi4Vi1T_-2" source="qBy8X_8OdxGBCi4Vi1T_-4" target="qBy8X_8OdxGBCi4Vi1T_-5">
          <mxGeometry relative="1" as="geometry" />
        </mxCell>
        <mxCell id="qBy8X_8OdxGBCi4Vi1T_-4" value="" style="points=[[0.145,0.145,0],[0.5,0,0],[0.855,0.145,0],[1,0.5,0],[0.855,0.855,0],[0.5,1,0],[0.145,0.855,0],[0,0.5,0]];shape=mxgraph.bpmn.event;html=1;verticalLabelPosition=bottom;labelBackgroundColor=#ffffff;verticalAlign=top;align=center;perimeter=ellipsePerimeter;outlineConnect=0;aspect=fixed;outline=standard;symbol=general;" vertex="1" parent="qBy8X_8OdxGBCi4Vi1T_-2">
          <mxGeometry x="70" y="175" width="50" height="50" as="geometry" />
        </mxCell>
        <mxCell id="qBy8X_8OdxGBCi4Vi1T_-5" value="Disponibilizar formulário para preenchimento" style="points=[[0.25,0,0],[0.5,0,0],[0.75,0,0],[1,0.25,0],[1,0.5,0],[1,0.75,0],[0.75,1,0],[0.5,1,0],[0.25,1,0],[0,0.75,0],[0,0.5,0],[0,0.25,0]];shape=mxgraph.bpmn.task;whiteSpace=wrap;rectStyle=rounded;size=10;html=1;container=1;expand=0;collapsible=0;taskMarker=service;" vertex="1" parent="qBy8X_8OdxGBCi4Vi1T_-2">
          <mxGeometry x="470" y="160" width="120" height="80" as="geometry" />
        </mxCell>
        <mxCell id="qBy8X_8OdxGBCi4Vi1T_-6" value="" style="shape=datastore;html=1;labelPosition=center;verticalLabelPosition=bottom;align=center;verticalAlign=top;" vertex="1" parent="qBy8X_8OdxGBCi4Vi1T_-2">
          <mxGeometry x="675" y="170" width="50" height="55" as="geometry" />
        </mxCell>
        <mxCell id="qBy8X_8OdxGBCi4Vi1T_-7" value="Logar usuário na aplicação" style="points=[[0.25,0,0],[0.5,0,0],[0.75,0,0],[1,0.25,0],[1,0.5,0],[1,0.75,0],[0.75,1,0],[0.5,1,0],[0.25,1,0],[0,0.75,0],[0,0.5,0],[0,0.25,0]];shape=mxgraph.bpmn.task;whiteSpace=wrap;rectStyle=rounded;size=10;html=1;container=1;expand=0;collapsible=0;taskMarker=service;" vertex="1" parent="qBy8X_8OdxGBCi4Vi1T_-2">
          <mxGeometry x="890" y="160" width="120" height="80" as="geometry" />
        </mxCell>
        <mxCell id="qBy8X_8OdxGBCi4Vi1T_-8" value="Disponibilizar tela de inicial" style="points=[[0.25,0,0],[0.5,0,0],[0.75,0,0],[1,0.25,0],[1,0.5,0],[1,0.75,0],[0.75,1,0],[0.5,1,0],[0.25,1,0],[0,0.75,0],[0,0.5,0],[0,0.25,0]];shape=mxgraph.bpmn.task;whiteSpace=wrap;rectStyle=rounded;size=10;html=1;container=1;expand=0;collapsible=0;taskMarker=service;" vertex="1" parent="qBy8X_8OdxGBCi4Vi1T_-2">
          <mxGeometry x="1115" y="160" width="120" height="80" as="geometry" />
        </mxCell>
        <mxCell id="qBy8X_8OdxGBCi4Vi1T_-9" value="Disponibilizar lista de agendamentos" style="points=[[0.25,0,0],[0.5,0,0],[0.75,0,0],[1,0.25,0],[1,0.5,0],[1,0.75,0],[0.75,1,0],[0.5,1,0],[0.25,1,0],[0,0.75,0],[0,0.5,0],[0,0.25,0]];shape=mxgraph.bpmn.task;whiteSpace=wrap;rectStyle=rounded;size=10;html=1;container=1;expand=0;collapsible=0;taskMarker=service;" vertex="1" parent="qBy8X_8OdxGBCi4Vi1T_-2">
          <mxGeometry x="1295" y="160" width="120" height="80" as="geometry" />
        </mxCell>
        <mxCell id="qBy8X_8OdxGBCi4Vi1T_-10" value="Disponibilizar tela de novo agendamento" style="points=[[0.25,0,0],[0.5,0,0],[0.75,0,0],[1,0.25,0],[1,0.5,0],[1,0.75,0],[0.75,1,0],[0.5,1,0],[0.25,1,0],[0,0.75,0],[0,0.5,0],[0,0.25,0]];shape=mxgraph.bpmn.task;whiteSpace=wrap;rectStyle=rounded;size=10;html=1;container=1;expand=0;collapsible=0;taskMarker=service;" vertex="1" parent="qBy8X_8OdxGBCi4Vi1T_-2">
          <mxGeometry x="1505" y="160" width="120" height="80" as="geometry" />
        </mxCell>
        <mxCell id="qBy8X_8OdxGBCi4Vi1T_-13" value="Salvar valor e dados da corrida" style="shape=datastore;html=1;labelPosition=center;verticalLabelPosition=bottom;align=center;verticalAlign=top;" vertex="1" parent="qBy8X_8OdxGBCi4Vi1T_-2">
          <mxGeometry x="1905" y="172.5" width="50" height="55" as="geometry" />
        </mxCell>
        <mxCell id="2R3J8gUqWZK6LCPJtO3n-2" value="Disponibilizar tela para preenchimento" style="points=[[0.25,0,0],[0.5,0,0],[0.75,0,0],[1,0.25,0],[1,0.5,0],[1,0.75,0],[0.75,1,0],[0.5,1,0],[0.25,1,0],[0,0.75,0],[0,0.5,0],[0,0.25,0]];shape=mxgraph.bpmn.task;whiteSpace=wrap;rectStyle=rounded;size=10;html=1;container=1;expand=0;collapsible=0;taskMarker=service;" vertex="1" parent="qBy8X_8OdxGBCi4Vi1T_-2">
          <mxGeometry x="1695" y="160" width="120" height="80" as="geometry" />
        </mxCell>
        <mxCell id="qBy8X_8OdxGBCi4Vi1T_-37" value="Usuário final" style="swimlane;html=1;startSize=20;fontStyle=0;collapsible=0;horizontal=0;swimlaneLine=1;swimlaneFillColor=#ffffff;strokeWidth=2;whiteSpace=wrap;" vertex="1" parent="qBy8X_8OdxGBCi4Vi1T_-1">
          <mxGeometry x="-560" y="500" width="2160" height="380" as="geometry" />
        </mxCell>
        <mxCell id="qBy8X_8OdxGBCi4Vi1T_-38" style="edgeStyle=orthogonalEdgeStyle;rounded=0;orthogonalLoop=1;jettySize=auto;html=1;exitX=1;exitY=0.5;exitDx=0;exitDy=0;exitPerimeter=0;entryX=0;entryY=0.5;entryDx=0;entryDy=0;entryPerimeter=0;" edge="1" parent="qBy8X_8OdxGBCi4Vi1T_-37" source="qBy8X_8OdxGBCi4Vi1T_-39" target="qBy8X_8OdxGBCi4Vi1T_-41">
          <mxGeometry relative="1" as="geometry" />
        </mxCell>
        <mxCell id="qBy8X_8OdxGBCi4Vi1T_-39" value="" style="points=[[0.145,0.145,0],[0.5,0,0],[0.855,0.145,0],[1,0.5,0],[0.855,0.855,0],[0.5,1,0],[0.145,0.855,0],[0,0.5,0]];shape=mxgraph.bpmn.event;html=1;verticalLabelPosition=bottom;labelBackgroundColor=#ffffff;verticalAlign=top;align=center;perimeter=ellipsePerimeter;outlineConnect=0;aspect=fixed;outline=standard;symbol=general;" vertex="1" parent="qBy8X_8OdxGBCi4Vi1T_-37">
          <mxGeometry x="70" y="160" width="50" height="50" as="geometry" />
        </mxCell>
        <mxCell id="qBy8X_8OdxGBCi4Vi1T_-40" style="edgeStyle=orthogonalEdgeStyle;rounded=0;orthogonalLoop=1;jettySize=auto;html=1;exitX=1;exitY=0.5;exitDx=0;exitDy=0;exitPerimeter=0;entryX=0;entryY=0.5;entryDx=0;entryDy=0;entryPerimeter=0;" edge="1" parent="qBy8X_8OdxGBCi4Vi1T_-37" source="qBy8X_8OdxGBCi4Vi1T_-41" target="qBy8X_8OdxGBCi4Vi1T_-48">
          <mxGeometry relative="1" as="geometry" />
        </mxCell>
        <mxCell id="qBy8X_8OdxGBCi4Vi1T_-41" value="Abrir aplicação" style="points=[[0.25,0,0],[0.5,0,0],[0.75,0,0],[1,0.25,0],[1,0.5,0],[1,0.75,0],[0.75,1,0],[0.5,1,0],[0.25,1,0],[0,0.75,0],[0,0.5,0],[0,0.25,0]];shape=mxgraph.bpmn.task;whiteSpace=wrap;rectStyle=rounded;size=10;html=1;container=1;expand=0;collapsible=0;taskMarker=user;" vertex="1" parent="qBy8X_8OdxGBCi4Vi1T_-37">
          <mxGeometry x="180" y="145" width="120" height="80" as="geometry" />
        </mxCell>
        <mxCell id="qBy8X_8OdxGBCi4Vi1T_-42" style="edgeStyle=orthogonalEdgeStyle;rounded=0;orthogonalLoop=1;jettySize=auto;html=1;exitX=1;exitY=0.5;exitDx=0;exitDy=0;exitPerimeter=0;entryX=0;entryY=0.5;entryDx=0;entryDy=0;entryPerimeter=0;" edge="1" parent="qBy8X_8OdxGBCi4Vi1T_-37" source="qBy8X_8OdxGBCi4Vi1T_-43" target="qBy8X_8OdxGBCi4Vi1T_-54">
          <mxGeometry relative="1" as="geometry" />
        </mxCell>
        <mxCell id="qBy8X_8OdxGBCi4Vi1T_-43" value="Inserir usuário e senha" style="points=[[0.25,0,0],[0.5,0,0],[0.75,0,0],[1,0.25,0],[1,0.5,0],[1,0.75,0],[0.75,1,0],[0.5,1,0],[0.25,1,0],[0,0.75,0],[0,0.5,0],[0,0.25,0]];shape=mxgraph.bpmn.task;whiteSpace=wrap;rectStyle=rounded;size=10;html=1;container=1;expand=0;collapsible=0;taskMarker=user;" vertex="1" parent="qBy8X_8OdxGBCi4Vi1T_-37">
          <mxGeometry x="890" y="40" width="120" height="80" as="geometry" />
        </mxCell>
        <mxCell id="qBy8X_8OdxGBCi4Vi1T_-44" style="edgeStyle=orthogonalEdgeStyle;rounded=0;orthogonalLoop=1;jettySize=auto;html=1;exitX=0.5;exitY=0;exitDx=0;exitDy=0;exitPerimeter=0;entryX=0;entryY=0.5;entryDx=0;entryDy=0;entryPerimeter=0;" edge="1" parent="qBy8X_8OdxGBCi4Vi1T_-37" source="qBy8X_8OdxGBCi4Vi1T_-48" target="qBy8X_8OdxGBCi4Vi1T_-43">
          <mxGeometry relative="1" as="geometry" />
        </mxCell>
        <mxCell id="qBy8X_8OdxGBCi4Vi1T_-45" value="Não" style="edgeLabel;html=1;align=center;verticalAlign=middle;resizable=0;points=[];" vertex="1" connectable="0" parent="qBy8X_8OdxGBCi4Vi1T_-44">
          <mxGeometry x="-0.3278" y="-2" relative="1" as="geometry">
            <mxPoint x="-39" as="offset" />
          </mxGeometry>
        </mxCell>
        <mxCell id="qBy8X_8OdxGBCi4Vi1T_-46" style="edgeStyle=orthogonalEdgeStyle;rounded=0;orthogonalLoop=1;jettySize=auto;html=1;exitX=0.5;exitY=1;exitDx=0;exitDy=0;exitPerimeter=0;entryX=0;entryY=0.5;entryDx=0;entryDy=0;entryPerimeter=0;" edge="1" parent="qBy8X_8OdxGBCi4Vi1T_-37" source="qBy8X_8OdxGBCi4Vi1T_-48" target="qBy8X_8OdxGBCi4Vi1T_-50">
          <mxGeometry relative="1" as="geometry" />
        </mxCell>
        <mxCell id="qBy8X_8OdxGBCi4Vi1T_-47" value="Sim" style="edgeLabel;html=1;align=center;verticalAlign=middle;resizable=0;points=[];" vertex="1" connectable="0" parent="qBy8X_8OdxGBCi4Vi1T_-46">
          <mxGeometry x="0.223" y="1" relative="1" as="geometry">
            <mxPoint as="offset" />
          </mxGeometry>
        </mxCell>
        <mxCell id="qBy8X_8OdxGBCi4Vi1T_-48" value="Possui Cadastro?" style="points=[[0.25,0.25,0],[0.5,0,0],[0.75,0.25,0],[1,0.5,0],[0.75,0.75,0],[0.5,1,0],[0.25,0.75,0],[0,0.5,0]];shape=mxgraph.bpmn.gateway2;html=1;verticalLabelPosition=bottom;labelBackgroundColor=#ffffff;verticalAlign=top;align=center;perimeter=rhombusPerimeter;outlineConnect=0;outline=eventNonint;symbol=parallelMultiple;" vertex="1" parent="qBy8X_8OdxGBCi4Vi1T_-37">
          <mxGeometry x="370" y="160" width="50" height="50" as="geometry" />
        </mxCell>
        <mxCell id="qBy8X_8OdxGBCi4Vi1T_-49" style="edgeStyle=orthogonalEdgeStyle;rounded=0;orthogonalLoop=1;jettySize=auto;html=1;exitX=1;exitY=0.5;exitDx=0;exitDy=0;exitPerimeter=0;entryX=0;entryY=0.5;entryDx=0;entryDy=0;entryPerimeter=0;" edge="1" parent="qBy8X_8OdxGBCi4Vi1T_-37" source="qBy8X_8OdxGBCi4Vi1T_-50" target="qBy8X_8OdxGBCi4Vi1T_-52">
          <mxGeometry relative="1" as="geometry" />
        </mxCell>
        <mxCell id="qBy8X_8OdxGBCi4Vi1T_-50" value="Cadastrar usuário, senha e informações PET" style="points=[[0.25,0,0],[0.5,0,0],[0.75,0,0],[1,0.25,0],[1,0.5,0],[1,0.75,0],[0.75,1,0],[0.5,1,0],[0.25,1,0],[0,0.75,0],[0,0.5,0],[0,0.25,0]];shape=mxgraph.bpmn.task;whiteSpace=wrap;rectStyle=rounded;size=10;html=1;container=1;expand=0;collapsible=0;taskMarker=user;" vertex="1" parent="qBy8X_8OdxGBCi4Vi1T_-37">
          <mxGeometry x="470" y="240" width="120" height="80" as="geometry" />
        </mxCell>
        <mxCell id="qBy8X_8OdxGBCi4Vi1T_-51" style="edgeStyle=orthogonalEdgeStyle;rounded=0;orthogonalLoop=1;jettySize=auto;html=1;exitX=1;exitY=0.5;exitDx=0;exitDy=0;exitPerimeter=0;entryX=0;entryY=0.5;entryDx=0;entryDy=0;entryPerimeter=0;" edge="1" parent="qBy8X_8OdxGBCi4Vi1T_-37" source="qBy8X_8OdxGBCi4Vi1T_-52">
          <mxGeometry relative="1" as="geometry">
            <mxPoint x="800" y="280" as="targetPoint" />
          </mxGeometry>
        </mxCell>
        <mxCell id="qBy8X_8OdxGBCi4Vi1T_-52" value="Confirmar cadastro" style="points=[[0.25,0,0],[0.5,0,0],[0.75,0,0],[1,0.25,0],[1,0.5,0],[1,0.75,0],[0.75,1,0],[0.5,1,0],[0.25,1,0],[0,0.75,0],[0,0.5,0],[0,0.25,0]];shape=mxgraph.bpmn.task;whiteSpace=wrap;rectStyle=rounded;size=10;html=1;container=1;expand=0;collapsible=0;taskMarker=user;" vertex="1" parent="qBy8X_8OdxGBCi4Vi1T_-37">
          <mxGeometry x="640" y="240" width="120" height="80" as="geometry" />
        </mxCell>
        <mxCell id="qBy8X_8OdxGBCi4Vi1T_-53" style="edgeStyle=orthogonalEdgeStyle;rounded=0;orthogonalLoop=1;jettySize=auto;html=1;exitX=1;exitY=0.5;exitDx=0;exitDy=0;exitPerimeter=0;entryX=0;entryY=0.5;entryDx=0;entryDy=0;entryPerimeter=0;" edge="1" parent="qBy8X_8OdxGBCi4Vi1T_-37" source="qBy8X_8OdxGBCi4Vi1T_-54" target="qBy8X_8OdxGBCi4Vi1T_-56">
          <mxGeometry relative="1" as="geometry" />
        </mxCell>
        <mxCell id="qBy8X_8OdxGBCi4Vi1T_-54" value="Acessar tela inicial" style="points=[[0.25,0,0],[0.5,0,0],[0.75,0,0],[1,0.25,0],[1,0.5,0],[1,0.75,0],[0.75,1,0],[0.5,1,0],[0.25,1,0],[0,0.75,0],[0,0.5,0],[0,0.25,0]];shape=mxgraph.bpmn.task;whiteSpace=wrap;rectStyle=rounded;size=10;html=1;container=1;expand=0;collapsible=0;taskMarker=user;" vertex="1" parent="qBy8X_8OdxGBCi4Vi1T_-37">
          <mxGeometry x="1115" y="40" width="120" height="80" as="geometry" />
        </mxCell>
        <mxCell id="qBy8X_8OdxGBCi4Vi1T_-55" style="edgeStyle=orthogonalEdgeStyle;rounded=0;orthogonalLoop=1;jettySize=auto;html=1;exitX=1;exitY=0.5;exitDx=0;exitDy=0;exitPerimeter=0;entryX=0;entryY=0.5;entryDx=0;entryDy=0;entryPerimeter=0;" edge="1" parent="qBy8X_8OdxGBCi4Vi1T_-37" source="qBy8X_8OdxGBCi4Vi1T_-56" target="qBy8X_8OdxGBCi4Vi1T_-58">
          <mxGeometry relative="1" as="geometry" />
        </mxCell>
        <mxCell id="qBy8X_8OdxGBCi4Vi1T_-56" value="Lista de agendamentos" style="points=[[0.25,0,0],[0.5,0,0],[0.75,0,0],[1,0.25,0],[1,0.5,0],[1,0.75,0],[0.75,1,0],[0.5,1,0],[0.25,1,0],[0,0.75,0],[0,0.5,0],[0,0.25,0]];shape=mxgraph.bpmn.task;whiteSpace=wrap;rectStyle=rounded;size=10;html=1;container=1;expand=0;collapsible=0;taskMarker=user;" vertex="1" parent="qBy8X_8OdxGBCi4Vi1T_-37">
          <mxGeometry x="1295" y="40" width="120" height="80" as="geometry" />
        </mxCell>
        <mxCell id="qBy8X_8OdxGBCi4Vi1T_-57" style="edgeStyle=orthogonalEdgeStyle;rounded=0;orthogonalLoop=1;jettySize=auto;html=1;exitX=1;exitY=0.5;exitDx=0;exitDy=0;exitPerimeter=0;entryX=0;entryY=0.5;entryDx=0;entryDy=0;entryPerimeter=0;" edge="1" parent="qBy8X_8OdxGBCi4Vi1T_-37" source="qBy8X_8OdxGBCi4Vi1T_-58" target="qBy8X_8OdxGBCi4Vi1T_-60">
          <mxGeometry relative="1" as="geometry" />
        </mxCell>
        <mxCell id="qBy8X_8OdxGBCi4Vi1T_-58" value="Fazer novo agendamento" style="points=[[0.25,0,0],[0.5,0,0],[0.75,0,0],[1,0.25,0],[1,0.5,0],[1,0.75,0],[0.75,1,0],[0.5,1,0],[0.25,1,0],[0,0.75,0],[0,0.5,0],[0,0.25,0]];shape=mxgraph.bpmn.task;whiteSpace=wrap;rectStyle=rounded;size=10;html=1;container=1;expand=0;collapsible=0;taskMarker=user;" vertex="1" parent="qBy8X_8OdxGBCi4Vi1T_-37">
          <mxGeometry x="1505" y="40" width="120" height="80" as="geometry" />
        </mxCell>
        <mxCell id="2R3J8gUqWZK6LCPJtO3n-1" style="edgeStyle=orthogonalEdgeStyle;rounded=0;orthogonalLoop=1;jettySize=auto;html=1;exitX=1;exitY=0.5;exitDx=0;exitDy=0;exitPerimeter=0;entryX=0;entryY=0.5;entryDx=0;entryDy=0;entryPerimeter=0;" edge="1" parent="qBy8X_8OdxGBCi4Vi1T_-37" source="qBy8X_8OdxGBCi4Vi1T_-60" target="2R3J8gUqWZK6LCPJtO3n-0">
          <mxGeometry relative="1" as="geometry" />
        </mxCell>
        <mxCell id="qBy8X_8OdxGBCi4Vi1T_-60" value="Preencher os campos" style="points=[[0.25,0,0],[0.5,0,0],[0.75,0,0],[1,0.25,0],[1,0.5,0],[1,0.75,0],[0.75,1,0],[0.5,1,0],[0.25,1,0],[0,0.75,0],[0,0.5,0],[0,0.25,0]];shape=mxgraph.bpmn.task;whiteSpace=wrap;rectStyle=rounded;size=10;html=1;container=1;expand=0;collapsible=0;taskMarker=user;" vertex="1" parent="qBy8X_8OdxGBCi4Vi1T_-37">
          <mxGeometry x="1695" y="40" width="120" height="80" as="geometry" />
        </mxCell>
        <mxCell id="qBy8X_8OdxGBCi4Vi1T_-61" value="Logar na aplicação&amp;nbsp;" style="points=[[0.145,0.145,0],[0.5,0,0],[0.855,0.145,0],[1,0.5,0],[0.855,0.855,0],[0.5,1,0],[0.145,0.855,0],[0,0.5,0]];shape=mxgraph.bpmn.event;html=1;verticalLabelPosition=bottom;labelBackgroundColor=#ffffff;verticalAlign=top;align=center;perimeter=ellipsePerimeter;outlineConnect=0;aspect=fixed;outline=standard;symbol=signal;" vertex="1" parent="qBy8X_8OdxGBCi4Vi1T_-37">
          <mxGeometry x="800" y="255" width="50" height="50" as="geometry" />
        </mxCell>
        <mxCell id="qBy8X_8OdxGBCi4Vi1T_-62" value="Logar na aplicação" style="points=[[0.145,0.145,0],[0.5,0,0],[0.855,0.145,0],[1,0.5,0],[0.855,0.855,0],[0.5,1,0],[0.145,0.855,0],[0,0.5,0]];shape=mxgraph.bpmn.event;html=1;verticalLabelPosition=bottom;labelBackgroundColor=#ffffff;verticalAlign=top;align=center;perimeter=ellipsePerimeter;outlineConnect=0;aspect=fixed;outline=throwing;symbol=signal;" vertex="1" parent="qBy8X_8OdxGBCi4Vi1T_-37">
          <mxGeometry x="610" y="55" width="50" height="50" as="geometry" />
        </mxCell>
        <mxCell id="qBy8X_8OdxGBCi4Vi1T_-63" value="" style="points=[[0.145,0.145,0],[0.5,0,0],[0.855,0.145,0],[1,0.5,0],[0.855,0.855,0],[0.5,1,0],[0.145,0.855,0],[0,0.5,0]];shape=mxgraph.bpmn.event;html=1;verticalLabelPosition=bottom;labelBackgroundColor=#ffffff;verticalAlign=top;align=center;perimeter=ellipsePerimeter;outlineConnect=0;aspect=fixed;outline=end;symbol=terminate2;" vertex="1" parent="qBy8X_8OdxGBCi4Vi1T_-37">
          <mxGeometry x="2060" y="55" width="50" height="50" as="geometry" />
        </mxCell>
        <mxCell id="2R3J8gUqWZK6LCPJtO3n-4" style="edgeStyle=orthogonalEdgeStyle;rounded=0;orthogonalLoop=1;jettySize=auto;html=1;exitX=1;exitY=0.5;exitDx=0;exitDy=0;exitPerimeter=0;" edge="1" parent="qBy8X_8OdxGBCi4Vi1T_-37" source="2R3J8gUqWZK6LCPJtO3n-0">
          <mxGeometry relative="1" as="geometry">
            <mxPoint x="2060" y="80" as="targetPoint" />
          </mxGeometry>
        </mxCell>
        <mxCell id="2R3J8gUqWZK6LCPJtO3n-0" value="Confirmar agendamento" style="points=[[0.25,0,0],[0.5,0,0],[0.75,0,0],[1,0.25,0],[1,0.5,0],[1,0.75,0],[0.75,1,0],[0.5,1,0],[0.25,1,0],[0,0.75,0],[0,0.5,0],[0,0.25,0]];shape=mxgraph.bpmn.task;whiteSpace=wrap;rectStyle=rounded;size=10;html=1;container=1;expand=0;collapsible=0;taskMarker=user;" vertex="1" parent="qBy8X_8OdxGBCi4Vi1T_-37">
          <mxGeometry x="1870" y="40" width="120" height="80" as="geometry" />
        </mxCell>
        <mxCell id="qBy8X_8OdxGBCi4Vi1T_-64" value="" style="dashed=1;dashPattern=8 4;endArrow=blockThin;endFill=1;startArrow=oval;startFill=0;endSize=6;startSize=4;html=1;rounded=0;exitX=0.25;exitY=1;exitDx=0;exitDy=0;exitPerimeter=0;entryX=0.25;entryY=0;entryDx=0;entryDy=0;entryPerimeter=0;" edge="1" parent="qBy8X_8OdxGBCi4Vi1T_-1" source="qBy8X_8OdxGBCi4Vi1T_-50" target="qBy8X_8OdxGBCi4Vi1T_-5">
          <mxGeometry width="160" relative="1" as="geometry">
            <mxPoint x="-330" y="840" as="sourcePoint" />
            <mxPoint x="-170" y="840" as="targetPoint" />
          </mxGeometry>
        </mxCell>
        <mxCell id="qBy8X_8OdxGBCi4Vi1T_-65" value="Receber requisição&lt;br&gt;&amp;nbsp;de cadastro&amp;nbsp;" style="edgeLabel;html=1;align=center;verticalAlign=middle;resizable=0;points=[];" vertex="1" connectable="0" parent="qBy8X_8OdxGBCi4Vi1T_-64">
          <mxGeometry x="-0.3679" relative="1" as="geometry">
            <mxPoint as="offset" />
          </mxGeometry>
        </mxCell>
        <mxCell id="qBy8X_8OdxGBCi4Vi1T_-66" value="" style="dashed=1;dashPattern=8 4;endArrow=blockThin;endFill=1;startArrow=oval;startFill=0;endSize=6;startSize=4;html=1;rounded=0;exitX=0.75;exitY=0;exitDx=0;exitDy=0;exitPerimeter=0;entryX=0.75;entryY=1;entryDx=0;entryDy=0;entryPerimeter=0;" edge="1" parent="qBy8X_8OdxGBCi4Vi1T_-1" source="qBy8X_8OdxGBCi4Vi1T_-5" target="qBy8X_8OdxGBCi4Vi1T_-50">
          <mxGeometry width="160" relative="1" as="geometry">
            <mxPoint x="20" y="1050" as="sourcePoint" />
            <mxPoint x="180" y="1050" as="targetPoint" />
          </mxGeometry>
        </mxCell>
        <mxCell id="qBy8X_8OdxGBCi4Vi1T_-67" value="Renderizar tela &lt;br&gt;de cadastro" style="edgeLabel;html=1;align=center;verticalAlign=middle;resizable=0;points=[];" vertex="1" connectable="0" parent="qBy8X_8OdxGBCi4Vi1T_-66">
          <mxGeometry x="-0.1429" y="-1" relative="1" as="geometry">
            <mxPoint as="offset" />
          </mxGeometry>
        </mxCell>
        <mxCell id="qBy8X_8OdxGBCi4Vi1T_-68" value="" style="dashed=1;dashPattern=8 4;endArrow=blockThin;endFill=1;startArrow=oval;startFill=0;endSize=6;startSize=4;html=1;rounded=0;exitX=0.5;exitY=1;exitDx=0;exitDy=0;exitPerimeter=0;entryX=0.5;entryY=0;entryDx=0;entryDy=0;" edge="1" parent="qBy8X_8OdxGBCi4Vi1T_-1" source="qBy8X_8OdxGBCi4Vi1T_-52" target="qBy8X_8OdxGBCi4Vi1T_-6">
          <mxGeometry width="160" relative="1" as="geometry">
            <mxPoint x="90" y="920" as="sourcePoint" />
            <mxPoint x="250" y="920" as="targetPoint" />
          </mxGeometry>
        </mxCell>
        <mxCell id="qBy8X_8OdxGBCi4Vi1T_-69" value="Salvar novo&lt;br&gt;&amp;nbsp;usuário no database" style="edgeLabel;html=1;align=center;verticalAlign=middle;resizable=0;points=[];" vertex="1" connectable="0" parent="qBy8X_8OdxGBCi4Vi1T_-68">
          <mxGeometry x="0.7" y="3" relative="1" as="geometry">
            <mxPoint as="offset" />
          </mxGeometry>
        </mxCell>
        <mxCell id="qBy8X_8OdxGBCi4Vi1T_-70" value="" style="dashed=1;dashPattern=8 4;endArrow=blockThin;endFill=1;startArrow=oval;startFill=0;endSize=6;startSize=4;html=1;rounded=0;exitX=0.5;exitY=1;exitDx=0;exitDy=0;exitPerimeter=0;" edge="1" parent="qBy8X_8OdxGBCi4Vi1T_-1" source="qBy8X_8OdxGBCi4Vi1T_-43" target="qBy8X_8OdxGBCi4Vi1T_-7">
          <mxGeometry width="160" relative="1" as="geometry">
            <mxPoint x="360" y="750" as="sourcePoint" />
            <mxPoint x="520" y="750" as="targetPoint" />
          </mxGeometry>
        </mxCell>
        <mxCell id="qBy8X_8OdxGBCi4Vi1T_-71" value="" style="dashed=1;dashPattern=8 4;endArrow=blockThin;endFill=1;startArrow=oval;startFill=0;endSize=6;startSize=4;html=1;rounded=0;exitX=0.5;exitY=1;exitDx=0;exitDy=0;exitPerimeter=0;entryX=0.5;entryY=0;entryDx=0;entryDy=0;entryPerimeter=0;" edge="1" parent="qBy8X_8OdxGBCi4Vi1T_-1" source="qBy8X_8OdxGBCi4Vi1T_-54" target="qBy8X_8OdxGBCi4Vi1T_-8">
          <mxGeometry width="160" relative="1" as="geometry">
            <mxPoint x="620" y="700" as="sourcePoint" />
            <mxPoint x="780" y="700" as="targetPoint" />
          </mxGeometry>
        </mxCell>
        <mxCell id="qBy8X_8OdxGBCi4Vi1T_-72" value="" style="dashed=1;dashPattern=8 4;endArrow=blockThin;endFill=1;startArrow=oval;startFill=0;endSize=6;startSize=4;html=1;rounded=0;exitX=0.5;exitY=1;exitDx=0;exitDy=0;exitPerimeter=0;entryX=0.5;entryY=0;entryDx=0;entryDy=0;entryPerimeter=0;" edge="1" parent="qBy8X_8OdxGBCi4Vi1T_-1" source="qBy8X_8OdxGBCi4Vi1T_-56" target="qBy8X_8OdxGBCi4Vi1T_-9">
          <mxGeometry width="160" relative="1" as="geometry">
            <mxPoint x="760" y="780" as="sourcePoint" />
            <mxPoint x="920" y="780" as="targetPoint" />
          </mxGeometry>
        </mxCell>
        <mxCell id="qBy8X_8OdxGBCi4Vi1T_-73" value="" style="dashed=1;dashPattern=8 4;endArrow=blockThin;endFill=1;startArrow=oval;startFill=0;endSize=6;startSize=4;html=1;rounded=0;exitX=0.5;exitY=1;exitDx=0;exitDy=0;exitPerimeter=0;entryX=0.5;entryY=0;entryDx=0;entryDy=0;entryPerimeter=0;" edge="1" parent="qBy8X_8OdxGBCi4Vi1T_-1" source="qBy8X_8OdxGBCi4Vi1T_-58">
          <mxGeometry width="160" relative="1" as="geometry">
            <mxPoint x="1010" y="720" as="sourcePoint" />
            <mxPoint x="1005" y="1095" as="targetPoint" />
          </mxGeometry>
        </mxCell>
        <mxCell id="qBy8X_8OdxGBCi4Vi1T_-74" value="" style="dashed=1;dashPattern=8 4;endArrow=blockThin;endFill=1;startArrow=oval;startFill=0;endSize=6;startSize=4;html=1;rounded=0;exitX=0.5;exitY=1;exitDx=0;exitDy=0;exitPerimeter=0;entryX=0.5;entryY=0;entryDx=0;entryDy=0;" edge="1" parent="qBy8X_8OdxGBCi4Vi1T_-1" source="2R3J8gUqWZK6LCPJtO3n-0" target="qBy8X_8OdxGBCi4Vi1T_-13">
          <mxGeometry width="160" relative="1" as="geometry">
            <mxPoint x="1160" y="780" as="sourcePoint" />
            <mxPoint x="1320" y="780" as="targetPoint" />
          </mxGeometry>
        </mxCell>
        <mxCell id="2R3J8gUqWZK6LCPJtO3n-3" value="" style="dashed=1;dashPattern=8 4;endArrow=blockThin;endFill=1;startArrow=oval;startFill=0;endSize=6;startSize=4;html=1;rounded=0;exitX=0.5;exitY=1;exitDx=0;exitDy=0;exitPerimeter=0;entryX=0.5;entryY=0;entryDx=0;entryDy=0;entryPerimeter=0;" edge="1" parent="qBy8X_8OdxGBCi4Vi1T_-1" source="qBy8X_8OdxGBCi4Vi1T_-60" target="2R3J8gUqWZK6LCPJtO3n-2">
          <mxGeometry width="160" relative="1" as="geometry">
            <mxPoint x="1220" y="800" as="sourcePoint" />
            <mxPoint x="1380" y="800" as="targetPoint" />
          </mxGeometry>
        </mxCell>
      </root>
    </mxGraphModel>
  </diagram>
  <diagram id="XzQVTg6vOJpbuGTTA_zS" name="Processo de cadastrar novo/ editar ou excluir PET">
    <mxGraphModel dx="2150" dy="955" grid="1" gridSize="10" guides="1" tooltips="1" connect="1" arrows="1" fold="1" page="0" pageScale="1" pageWidth="850" pageHeight="1100" math="0" shadow="0">
      <root>
        <mxCell id="0" />
        <mxCell id="1" parent="0" />
        <mxCell id="MEVFxJiInM-8qDMzUxyb-2" value="Aplicação" style="swimlane;html=1;startSize=20;fontStyle=0;collapsible=0;horizontal=0;swimlaneLine=1;swimlaneFillColor=#ffffff;strokeWidth=2;whiteSpace=wrap;" vertex="1" parent="1">
          <mxGeometry x="-220" y="540" width="1460" height="270" as="geometry" />
        </mxCell>
        <mxCell id="vnm3p8RSRqZOxyRPFcwR-5" value="Salvar exclusão do usuário" style="shape=datastore;html=1;labelPosition=center;verticalLabelPosition=bottom;align=center;verticalAlign=top;" vertex="1" parent="MEVFxJiInM-8qDMzUxyb-2">
          <mxGeometry x="787" y="100" width="62" height="70" as="geometry" />
        </mxCell>
        <mxCell id="S3y8eoAFPVFqq_AzR7F_-2" value="Salvar edição do usuário" style="shape=datastore;html=1;labelPosition=center;verticalLabelPosition=bottom;align=center;verticalAlign=top;" vertex="1" parent="MEVFxJiInM-8qDMzUxyb-2">
          <mxGeometry x="1050" y="100" width="62" height="70" as="geometry" />
        </mxCell>
        <mxCell id="S3y8eoAFPVFqq_AzR7F_-5" value="Salvar&amp;nbsp; informações &lt;br&gt;novo PET ao usuário" style="shape=datastore;html=1;labelPosition=center;verticalLabelPosition=bottom;align=center;verticalAlign=top;" vertex="1" parent="MEVFxJiInM-8qDMzUxyb-2">
          <mxGeometry x="1240" y="100" width="62" height="70" as="geometry" />
        </mxCell>
        <mxCell id="MEVFxJiInM-8qDMzUxyb-1" value="Usuário Final" style="swimlane;html=1;startSize=20;fontStyle=0;collapsible=0;horizontal=0;swimlaneLine=1;swimlaneFillColor=#ffffff;strokeWidth=2;whiteSpace=wrap;" vertex="1" parent="1">
          <mxGeometry x="-230" y="20" width="1470" height="450" as="geometry" />
        </mxCell>
        <mxCell id="d9cKvo288ENAI7wdXVZx-2" style="edgeStyle=orthogonalEdgeStyle;rounded=0;orthogonalLoop=1;jettySize=auto;html=1;exitX=1;exitY=0.5;exitDx=0;exitDy=0;exitPerimeter=0;entryX=0;entryY=0.5;entryDx=0;entryDy=0;entryPerimeter=0;" edge="1" parent="MEVFxJiInM-8qDMzUxyb-1" source="MEVFxJiInM-8qDMzUxyb-3" target="MEVFxJiInM-8qDMzUxyb-4">
          <mxGeometry relative="1" as="geometry" />
        </mxCell>
        <mxCell id="MEVFxJiInM-8qDMzUxyb-3" value="" style="points=[[0.145,0.145,0],[0.5,0,0],[0.855,0.145,0],[1,0.5,0],[0.855,0.855,0],[0.5,1,0],[0.145,0.855,0],[0,0.5,0]];shape=mxgraph.bpmn.event;html=1;verticalLabelPosition=bottom;labelBackgroundColor=#ffffff;verticalAlign=top;align=center;perimeter=ellipsePerimeter;outlineConnect=0;aspect=fixed;outline=standard;symbol=general;" vertex="1" parent="MEVFxJiInM-8qDMzUxyb-1">
          <mxGeometry x="50" y="181" width="50" height="50" as="geometry" />
        </mxCell>
        <mxCell id="d9cKvo288ENAI7wdXVZx-3" style="edgeStyle=orthogonalEdgeStyle;rounded=0;orthogonalLoop=1;jettySize=auto;html=1;exitX=1;exitY=0.5;exitDx=0;exitDy=0;exitPerimeter=0;entryX=0;entryY=0.5;entryDx=0;entryDy=0;entryPerimeter=0;" edge="1" parent="MEVFxJiInM-8qDMzUxyb-1" source="MEVFxJiInM-8qDMzUxyb-4" target="MEVFxJiInM-8qDMzUxyb-5">
          <mxGeometry relative="1" as="geometry" />
        </mxCell>
        <mxCell id="MEVFxJiInM-8qDMzUxyb-4" value="Acessar a tela prinicpal" style="points=[[0.25,0,0],[0.5,0,0],[0.75,0,0],[1,0.25,0],[1,0.5,0],[1,0.75,0],[0.75,1,0],[0.5,1,0],[0.25,1,0],[0,0.75,0],[0,0.5,0],[0,0.25,0]];shape=mxgraph.bpmn.task;whiteSpace=wrap;rectStyle=rounded;size=10;html=1;container=1;expand=0;collapsible=0;taskMarker=user;" vertex="1" parent="MEVFxJiInM-8qDMzUxyb-1">
          <mxGeometry x="138" y="166" width="120" height="80" as="geometry" />
        </mxCell>
        <mxCell id="d9cKvo288ENAI7wdXVZx-4" style="edgeStyle=orthogonalEdgeStyle;rounded=0;orthogonalLoop=1;jettySize=auto;html=1;exitX=1;exitY=0.5;exitDx=0;exitDy=0;exitPerimeter=0;" edge="1" parent="MEVFxJiInM-8qDMzUxyb-1" source="MEVFxJiInM-8qDMzUxyb-5">
          <mxGeometry relative="1" as="geometry">
            <mxPoint x="450" y="205.42857142857144" as="targetPoint" />
          </mxGeometry>
        </mxCell>
        <mxCell id="MEVFxJiInM-8qDMzUxyb-5" value="Acessar menu &quot;listas de Pets cadastrados&quot;" style="points=[[0.25,0,0],[0.5,0,0],[0.75,0,0],[1,0.25,0],[1,0.5,0],[1,0.75,0],[0.75,1,0],[0.5,1,0],[0.25,1,0],[0,0.75,0],[0,0.5,0],[0,0.25,0]];shape=mxgraph.bpmn.task;whiteSpace=wrap;rectStyle=rounded;size=10;html=1;container=1;expand=0;collapsible=0;taskMarker=user;" vertex="1" parent="MEVFxJiInM-8qDMzUxyb-1">
          <mxGeometry x="298" y="166" width="120" height="80" as="geometry" />
        </mxCell>
        <mxCell id="MEVFxJiInM-8qDMzUxyb-18" style="edgeStyle=orthogonalEdgeStyle;rounded=0;orthogonalLoop=1;jettySize=auto;html=1;exitX=1;exitY=0.5;exitDx=0;exitDy=0;exitPerimeter=0;entryX=0;entryY=0.5;entryDx=0;entryDy=0;entryPerimeter=0;" edge="1" parent="MEVFxJiInM-8qDMzUxyb-1" source="MEVFxJiInM-8qDMzUxyb-6" target="MEVFxJiInM-8qDMzUxyb-7">
          <mxGeometry relative="1" as="geometry" />
        </mxCell>
        <mxCell id="MEVFxJiInM-8qDMzUxyb-6" value="Adicionar novo Pet" style="points=[[0.25,0,0],[0.5,0,0],[0.75,0,0],[1,0.25,0],[1,0.5,0],[1,0.75,0],[0.75,1,0],[0.5,1,0],[0.25,1,0],[0,0.75,0],[0,0.5,0],[0,0.25,0]];shape=mxgraph.bpmn.task;whiteSpace=wrap;rectStyle=rounded;size=10;html=1;container=1;expand=0;collapsible=0;taskMarker=user;" vertex="1" parent="MEVFxJiInM-8qDMzUxyb-1">
          <mxGeometry x="578" y="36" width="120" height="80" as="geometry" />
        </mxCell>
        <mxCell id="MEVFxJiInM-8qDMzUxyb-24" style="edgeStyle=orthogonalEdgeStyle;rounded=0;orthogonalLoop=1;jettySize=auto;html=1;exitX=1;exitY=0.5;exitDx=0;exitDy=0;exitPerimeter=0;entryX=0;entryY=0.5;entryDx=0;entryDy=0;entryPerimeter=0;" edge="1" parent="MEVFxJiInM-8qDMzUxyb-1" source="MEVFxJiInM-8qDMzUxyb-7" target="MEVFxJiInM-8qDMzUxyb-23">
          <mxGeometry relative="1" as="geometry" />
        </mxCell>
        <mxCell id="MEVFxJiInM-8qDMzUxyb-7" value="Preencher campos do novo PET e adicionar" style="points=[[0.25,0,0],[0.5,0,0],[0.75,0,0],[1,0.25,0],[1,0.5,0],[1,0.75,0],[0.75,1,0],[0.5,1,0],[0.25,1,0],[0,0.75,0],[0,0.5,0],[0,0.25,0]];shape=mxgraph.bpmn.task;whiteSpace=wrap;rectStyle=rounded;size=10;html=1;container=1;expand=0;collapsible=0;taskMarker=user;" vertex="1" parent="MEVFxJiInM-8qDMzUxyb-1">
          <mxGeometry x="768" y="36" width="120" height="80" as="geometry" />
        </mxCell>
        <mxCell id="MEVFxJiInM-8qDMzUxyb-10" style="edgeStyle=orthogonalEdgeStyle;rounded=0;orthogonalLoop=1;jettySize=auto;html=1;exitX=0.5;exitY=0;exitDx=0;exitDy=0;exitPerimeter=0;entryX=0;entryY=0.5;entryDx=0;entryDy=0;entryPerimeter=0;" edge="1" parent="MEVFxJiInM-8qDMzUxyb-1" source="MEVFxJiInM-8qDMzUxyb-9" target="MEVFxJiInM-8qDMzUxyb-6">
          <mxGeometry relative="1" as="geometry" />
        </mxCell>
        <mxCell id="MEVFxJiInM-8qDMzUxyb-11" value="Adicionar" style="edgeLabel;html=1;align=center;verticalAlign=middle;resizable=0;points=[];" vertex="1" connectable="0" parent="MEVFxJiInM-8qDMzUxyb-10">
          <mxGeometry x="0.0463" y="2" relative="1" as="geometry">
            <mxPoint x="45" as="offset" />
          </mxGeometry>
        </mxCell>
        <mxCell id="MEVFxJiInM-8qDMzUxyb-14" style="edgeStyle=orthogonalEdgeStyle;rounded=0;orthogonalLoop=1;jettySize=auto;html=1;exitX=1;exitY=0.5;exitDx=0;exitDy=0;exitPerimeter=0;entryX=0;entryY=0.5;entryDx=0;entryDy=0;entryPerimeter=0;" edge="1" parent="MEVFxJiInM-8qDMzUxyb-1" source="MEVFxJiInM-8qDMzUxyb-9" target="MEVFxJiInM-8qDMzUxyb-13">
          <mxGeometry relative="1" as="geometry" />
        </mxCell>
        <mxCell id="MEVFxJiInM-8qDMzUxyb-17" value="Editar" style="edgeLabel;html=1;align=center;verticalAlign=middle;resizable=0;points=[];" vertex="1" connectable="0" parent="MEVFxJiInM-8qDMzUxyb-14">
          <mxGeometry x="-0.4057" y="2" relative="1" as="geometry">
            <mxPoint x="-1" as="offset" />
          </mxGeometry>
        </mxCell>
        <mxCell id="MEVFxJiInM-8qDMzUxyb-15" style="edgeStyle=orthogonalEdgeStyle;rounded=0;orthogonalLoop=1;jettySize=auto;html=1;exitX=0.5;exitY=1;exitDx=0;exitDy=0;exitPerimeter=0;entryX=0;entryY=0.5;entryDx=0;entryDy=0;entryPerimeter=0;" edge="1" parent="MEVFxJiInM-8qDMzUxyb-1" source="MEVFxJiInM-8qDMzUxyb-9" target="MEVFxJiInM-8qDMzUxyb-12">
          <mxGeometry relative="1" as="geometry" />
        </mxCell>
        <mxCell id="MEVFxJiInM-8qDMzUxyb-16" value="Excluir" style="edgeLabel;html=1;align=center;verticalAlign=middle;resizable=0;points=[];" vertex="1" connectable="0" parent="MEVFxJiInM-8qDMzUxyb-15">
          <mxGeometry x="0.4639" y="1" relative="1" as="geometry">
            <mxPoint x="-1" as="offset" />
          </mxGeometry>
        </mxCell>
        <mxCell id="MEVFxJiInM-8qDMzUxyb-9" value="" style="points=[[0.25,0.25,0],[0.5,0,0],[0.75,0.25,0],[1,0.5,0],[0.75,0.75,0],[0.5,1,0],[0.25,0.75,0],[0,0.5,0]];shape=mxgraph.bpmn.gateway2;html=1;verticalLabelPosition=bottom;labelBackgroundColor=#ffffff;verticalAlign=top;align=center;perimeter=rhombusPerimeter;outlineConnect=0;outline=none;symbol=none;" vertex="1" parent="MEVFxJiInM-8qDMzUxyb-1">
          <mxGeometry x="448" y="181" width="50" height="50" as="geometry" />
        </mxCell>
        <mxCell id="vnm3p8RSRqZOxyRPFcwR-3" style="edgeStyle=orthogonalEdgeStyle;rounded=0;orthogonalLoop=1;jettySize=auto;html=1;exitX=1;exitY=0.5;exitDx=0;exitDy=0;exitPerimeter=0;" edge="1" parent="MEVFxJiInM-8qDMzUxyb-1" source="MEVFxJiInM-8qDMzUxyb-12" target="vnm3p8RSRqZOxyRPFcwR-2">
          <mxGeometry relative="1" as="geometry" />
        </mxCell>
        <mxCell id="MEVFxJiInM-8qDMzUxyb-12" value="Clicar no botão de excluir cadastro" style="points=[[0.25,0,0],[0.5,0,0],[0.75,0,0],[1,0.25,0],[1,0.5,0],[1,0.75,0],[0.75,1,0],[0.5,1,0],[0.25,1,0],[0,0.75,0],[0,0.5,0],[0,0.25,0]];shape=mxgraph.bpmn.task;whiteSpace=wrap;rectStyle=rounded;size=10;html=1;container=1;expand=0;collapsible=0;taskMarker=user;" vertex="1" parent="MEVFxJiInM-8qDMzUxyb-1">
          <mxGeometry x="580" y="326" width="120" height="80" as="geometry" />
        </mxCell>
        <mxCell id="vnm3p8RSRqZOxyRPFcwR-1" style="edgeStyle=orthogonalEdgeStyle;rounded=0;orthogonalLoop=1;jettySize=auto;html=1;exitX=1;exitY=0.5;exitDx=0;exitDy=0;exitPerimeter=0;entryX=0;entryY=0.5;entryDx=0;entryDy=0;entryPerimeter=0;" edge="1" parent="MEVFxJiInM-8qDMzUxyb-1" source="MEVFxJiInM-8qDMzUxyb-13" target="MEVFxJiInM-8qDMzUxyb-25">
          <mxGeometry relative="1" as="geometry" />
        </mxCell>
        <mxCell id="MEVFxJiInM-8qDMzUxyb-13" value="Editar campos desejados" style="points=[[0.25,0,0],[0.5,0,0],[0.75,0,0],[1,0.25,0],[1,0.5,0],[1,0.75,0],[0.75,1,0],[0.5,1,0],[0.25,1,0],[0,0.75,0],[0,0.5,0],[0,0.25,0]];shape=mxgraph.bpmn.task;whiteSpace=wrap;rectStyle=rounded;size=10;html=1;container=1;expand=0;collapsible=0;taskMarker=user;" vertex="1" parent="MEVFxJiInM-8qDMzUxyb-1">
          <mxGeometry x="578" y="166" width="120" height="80" as="geometry" />
        </mxCell>
        <mxCell id="MEVFxJiInM-8qDMzUxyb-19" value="" style="points=[[0.145,0.145,0],[0.5,0,0],[0.855,0.145,0],[1,0.5,0],[0.855,0.855,0],[0.5,1,0],[0.145,0.855,0],[0,0.5,0]];shape=mxgraph.bpmn.event;html=1;verticalLabelPosition=bottom;labelBackgroundColor=#ffffff;verticalAlign=top;align=center;perimeter=ellipsePerimeter;outlineConnect=0;aspect=fixed;outline=end;symbol=terminate2;" vertex="1" parent="MEVFxJiInM-8qDMzUxyb-1">
          <mxGeometry x="968" y="341" width="50" height="50" as="geometry" />
        </mxCell>
        <mxCell id="MEVFxJiInM-8qDMzUxyb-21" value="" style="points=[[0.145,0.145,0],[0.5,0,0],[0.855,0.145,0],[1,0.5,0],[0.855,0.855,0],[0.5,1,0],[0.145,0.855,0],[0,0.5,0]];shape=mxgraph.bpmn.event;html=1;verticalLabelPosition=bottom;labelBackgroundColor=#ffffff;verticalAlign=top;align=center;perimeter=ellipsePerimeter;outlineConnect=0;aspect=fixed;outline=end;symbol=terminate2;" vertex="1" parent="MEVFxJiInM-8qDMzUxyb-1">
          <mxGeometry x="968" y="181" width="50" height="50" as="geometry" />
        </mxCell>
        <mxCell id="MEVFxJiInM-8qDMzUxyb-23" value="" style="points=[[0.145,0.145,0],[0.5,0,0],[0.855,0.145,0],[1,0.5,0],[0.855,0.855,0],[0.5,1,0],[0.145,0.855,0],[0,0.5,0]];shape=mxgraph.bpmn.event;html=1;verticalLabelPosition=bottom;labelBackgroundColor=#ffffff;verticalAlign=top;align=center;perimeter=ellipsePerimeter;outlineConnect=0;aspect=fixed;outline=end;symbol=terminate2;" vertex="1" parent="MEVFxJiInM-8qDMzUxyb-1">
          <mxGeometry x="968" y="51" width="50" height="50" as="geometry" />
        </mxCell>
        <mxCell id="d9cKvo288ENAI7wdXVZx-1" style="edgeStyle=orthogonalEdgeStyle;rounded=0;orthogonalLoop=1;jettySize=auto;html=1;exitX=1;exitY=0.5;exitDx=0;exitDy=0;exitPerimeter=0;" edge="1" parent="MEVFxJiInM-8qDMzUxyb-1" source="MEVFxJiInM-8qDMzUxyb-25" target="MEVFxJiInM-8qDMzUxyb-21">
          <mxGeometry relative="1" as="geometry" />
        </mxCell>
        <mxCell id="MEVFxJiInM-8qDMzUxyb-25" value="Confirmar" style="points=[[0.25,0,0],[0.5,0,0],[0.75,0,0],[1,0.25,0],[1,0.5,0],[1,0.75,0],[0.75,1,0],[0.5,1,0],[0.25,1,0],[0,0.75,0],[0,0.5,0],[0,0.25,0]];shape=mxgraph.bpmn.task;whiteSpace=wrap;rectStyle=rounded;size=10;html=1;container=1;expand=0;collapsible=0;taskMarker=user;" vertex="1" parent="MEVFxJiInM-8qDMzUxyb-1">
          <mxGeometry x="768" y="166" width="120" height="80" as="geometry" />
        </mxCell>
        <mxCell id="S3y8eoAFPVFqq_AzR7F_-1" value="" style="dashed=1;dashPattern=8 4;endArrow=blockThin;endFill=1;startArrow=oval;startFill=0;endSize=6;startSize=4;html=1;rounded=0;exitX=0.5;exitY=1;exitDx=0;exitDy=0;exitPerimeter=0;" edge="1" parent="MEVFxJiInM-8qDMzUxyb-25" source="MEVFxJiInM-8qDMzUxyb-25">
          <mxGeometry width="160" relative="1" as="geometry">
            <mxPoint x="112" y="74" as="sourcePoint" />
            <mxPoint x="322" y="454" as="targetPoint" />
            <Array as="points">
              <mxPoint x="60" y="124" />
              <mxPoint x="322" y="124" />
            </Array>
          </mxGeometry>
        </mxCell>
        <mxCell id="d9cKvo288ENAI7wdXVZx-5" style="edgeStyle=orthogonalEdgeStyle;rounded=0;orthogonalLoop=1;jettySize=auto;html=1;exitX=1;exitY=0.5;exitDx=0;exitDy=0;exitPerimeter=0;entryX=0;entryY=0.5;entryDx=0;entryDy=0;entryPerimeter=0;" edge="1" parent="MEVFxJiInM-8qDMzUxyb-1" source="vnm3p8RSRqZOxyRPFcwR-2" target="MEVFxJiInM-8qDMzUxyb-19">
          <mxGeometry relative="1" as="geometry" />
        </mxCell>
        <mxCell id="vnm3p8RSRqZOxyRPFcwR-2" value="Confirmar" style="points=[[0.25,0,0],[0.5,0,0],[0.75,0,0],[1,0.25,0],[1,0.5,0],[1,0.75,0],[0.75,1,0],[0.5,1,0],[0.25,1,0],[0,0.75,0],[0,0.5,0],[0,0.25,0]];shape=mxgraph.bpmn.task;whiteSpace=wrap;rectStyle=rounded;size=10;html=1;container=1;expand=0;collapsible=0;taskMarker=user;" vertex="1" parent="MEVFxJiInM-8qDMzUxyb-1">
          <mxGeometry x="768" y="326" width="120" height="80" as="geometry" />
        </mxCell>
        <mxCell id="vnm3p8RSRqZOxyRPFcwR-4" value="" style="dashed=1;dashPattern=8 4;endArrow=blockThin;endFill=1;startArrow=oval;startFill=0;endSize=6;startSize=4;html=1;rounded=0;exitX=0.5;exitY=1;exitDx=0;exitDy=0;exitPerimeter=0;entryX=0.5;entryY=0;entryDx=0;entryDy=0;" edge="1" parent="1" source="vnm3p8RSRqZOxyRPFcwR-2" target="vnm3p8RSRqZOxyRPFcwR-5">
          <mxGeometry width="160" relative="1" as="geometry">
            <mxPoint x="640" y="430" as="sourcePoint" />
            <mxPoint x="630" y="620" as="targetPoint" />
          </mxGeometry>
        </mxCell>
        <mxCell id="S3y8eoAFPVFqq_AzR7F_-6" value="" style="dashed=1;dashPattern=8 4;endArrow=blockThin;endFill=1;startArrow=oval;startFill=0;endSize=6;startSize=4;html=1;rounded=0;exitX=0.5;exitY=1;exitDx=0;exitDy=0;exitPerimeter=0;entryX=0.5;entryY=0;entryDx=0;entryDy=0;" edge="1" parent="1" source="MEVFxJiInM-8qDMzUxyb-7" target="S3y8eoAFPVFqq_AzR7F_-5">
          <mxGeometry width="160" relative="1" as="geometry">
            <mxPoint x="598" y="60" as="sourcePoint" />
            <mxPoint x="1050" y="564" as="targetPoint" />
            <Array as="points">
              <mxPoint x="598" y="170" />
              <mxPoint x="910" y="170" />
              <mxPoint x="990" y="170" />
              <mxPoint x="1051" y="170" />
            </Array>
          </mxGeometry>
        </mxCell>
      </root>
    </mxGraphModel>
  </diagram>
  <diagram id="Cs8vsnozF6gxf4UMiggC" name="Editar/ excluir conta ">
    <mxGraphModel dx="1900" dy="819" grid="1" gridSize="10" guides="1" tooltips="1" connect="1" arrows="1" fold="1" page="0" pageScale="1" pageWidth="850" pageHeight="1100" math="0" shadow="0">
      <root>
        <mxCell id="0" />
        <mxCell id="1" parent="0" />
        <mxCell id="KHh0WZ6_fX_Gbm5OiCX4-1" value="Usuário final e motorista" style="swimlane;html=1;startSize=20;fontStyle=0;collapsible=0;horizontal=0;swimlaneLine=1;swimlaneFillColor=#ffffff;strokeWidth=2;whiteSpace=wrap;" vertex="1" parent="1">
          <mxGeometry x="-260" y="260" width="1120" height="350" as="geometry" />
        </mxCell>
        <mxCell id="o6fVMH9p4p3oU6YMO3rf-4" style="edgeStyle=orthogonalEdgeStyle;rounded=0;orthogonalLoop=1;jettySize=auto;html=1;exitX=1;exitY=0.5;exitDx=0;exitDy=0;exitPerimeter=0;entryX=0;entryY=0.5;entryDx=0;entryDy=0;entryPerimeter=0;" edge="1" parent="KHh0WZ6_fX_Gbm5OiCX4-1" source="o6fVMH9p4p3oU6YMO3rf-1" target="o6fVMH9p4p3oU6YMO3rf-2">
          <mxGeometry relative="1" as="geometry" />
        </mxCell>
        <mxCell id="o6fVMH9p4p3oU6YMO3rf-1" value="" style="points=[[0.145,0.145,0],[0.5,0,0],[0.855,0.145,0],[1,0.5,0],[0.855,0.855,0],[0.5,1,0],[0.145,0.855,0],[0,0.5,0]];shape=mxgraph.bpmn.event;html=1;verticalLabelPosition=bottom;labelBackgroundColor=#ffffff;verticalAlign=top;align=center;perimeter=ellipsePerimeter;outlineConnect=0;aspect=fixed;outline=standard;symbol=general;" vertex="1" parent="KHh0WZ6_fX_Gbm5OiCX4-1">
          <mxGeometry x="47" y="129" width="50" height="50" as="geometry" />
        </mxCell>
        <mxCell id="t2BSpYhtlFed7M54ln59-1" style="edgeStyle=orthogonalEdgeStyle;rounded=0;orthogonalLoop=1;jettySize=auto;html=1;exitX=1;exitY=0.5;exitDx=0;exitDy=0;exitPerimeter=0;entryX=0;entryY=0.5;entryDx=0;entryDy=0;entryPerimeter=0;" edge="1" parent="KHh0WZ6_fX_Gbm5OiCX4-1" source="o6fVMH9p4p3oU6YMO3rf-2" target="o6fVMH9p4p3oU6YMO3rf-10">
          <mxGeometry relative="1" as="geometry">
            <mxPoint x="310" y="158.33333333333348" as="targetPoint" />
          </mxGeometry>
        </mxCell>
        <mxCell id="o6fVMH9p4p3oU6YMO3rf-2" value="Acessar tela principal" style="points=[[0.25,0,0],[0.5,0,0],[0.75,0,0],[1,0.25,0],[1,0.5,0],[1,0.75,0],[0.75,1,0],[0.5,1,0],[0.25,1,0],[0,0.75,0],[0,0.5,0],[0,0.25,0]];shape=mxgraph.bpmn.task;whiteSpace=wrap;rectStyle=rounded;size=10;html=1;container=1;expand=0;collapsible=0;taskMarker=user;" vertex="1" parent="KHh0WZ6_fX_Gbm5OiCX4-1">
          <mxGeometry x="147" y="114" width="120" height="80" as="geometry" />
        </mxCell>
        <mxCell id="o6fVMH9p4p3oU6YMO3rf-15" style="edgeStyle=orthogonalEdgeStyle;rounded=0;orthogonalLoop=1;jettySize=auto;html=1;exitX=1;exitY=0.5;exitDx=0;exitDy=0;exitPerimeter=0;entryX=0;entryY=0.5;entryDx=0;entryDy=0;entryPerimeter=0;" edge="1" parent="KHh0WZ6_fX_Gbm5OiCX4-1" source="o6fVMH9p4p3oU6YMO3rf-3" target="o6fVMH9p4p3oU6YMO3rf-14">
          <mxGeometry relative="1" as="geometry" />
        </mxCell>
        <mxCell id="o6fVMH9p4p3oU6YMO3rf-3" value="Editar campo desejado" style="points=[[0.25,0,0],[0.5,0,0],[0.75,0,0],[1,0.25,0],[1,0.5,0],[1,0.75,0],[0.75,1,0],[0.5,1,0],[0.25,1,0],[0,0.75,0],[0,0.5,0],[0,0.25,0]];shape=mxgraph.bpmn.task;whiteSpace=wrap;rectStyle=rounded;size=10;html=1;container=1;expand=0;collapsible=0;taskMarker=user;" vertex="1" parent="KHh0WZ6_fX_Gbm5OiCX4-1">
          <mxGeometry x="417" y="20" width="120" height="80" as="geometry" />
        </mxCell>
        <mxCell id="o6fVMH9p4p3oU6YMO3rf-11" style="edgeStyle=orthogonalEdgeStyle;rounded=0;orthogonalLoop=1;jettySize=auto;html=1;exitX=0.5;exitY=0;exitDx=0;exitDy=0;exitPerimeter=0;entryX=0;entryY=0.5;entryDx=0;entryDy=0;entryPerimeter=0;" edge="1" parent="KHh0WZ6_fX_Gbm5OiCX4-1" source="o6fVMH9p4p3oU6YMO3rf-10" target="o6fVMH9p4p3oU6YMO3rf-3">
          <mxGeometry relative="1" as="geometry" />
        </mxCell>
        <mxCell id="o6fVMH9p4p3oU6YMO3rf-13" style="edgeStyle=orthogonalEdgeStyle;rounded=0;orthogonalLoop=1;jettySize=auto;html=1;exitX=0.5;exitY=1;exitDx=0;exitDy=0;exitPerimeter=0;entryX=0;entryY=0.5;entryDx=0;entryDy=0;entryPerimeter=0;" edge="1" parent="KHh0WZ6_fX_Gbm5OiCX4-1" source="o6fVMH9p4p3oU6YMO3rf-10" target="o6fVMH9p4p3oU6YMO3rf-12">
          <mxGeometry relative="1" as="geometry" />
        </mxCell>
        <mxCell id="o6fVMH9p4p3oU6YMO3rf-10" value="" style="points=[[0.25,0.25,0],[0.5,0,0],[0.75,0.25,0],[1,0.5,0],[0.75,0.75,0],[0.5,1,0],[0.25,0.75,0],[0,0.5,0]];shape=mxgraph.bpmn.gateway2;html=1;verticalLabelPosition=bottom;labelBackgroundColor=#ffffff;verticalAlign=top;align=center;perimeter=rhombusPerimeter;outlineConnect=0;outline=none;symbol=none;" vertex="1" parent="KHh0WZ6_fX_Gbm5OiCX4-1">
          <mxGeometry x="307" y="129" width="50" height="50" as="geometry" />
        </mxCell>
        <mxCell id="o6fVMH9p4p3oU6YMO3rf-17" style="edgeStyle=orthogonalEdgeStyle;rounded=0;orthogonalLoop=1;jettySize=auto;html=1;exitX=1;exitY=0.5;exitDx=0;exitDy=0;exitPerimeter=0;entryX=0;entryY=0.5;entryDx=0;entryDy=0;entryPerimeter=0;" edge="1" parent="KHh0WZ6_fX_Gbm5OiCX4-1" source="o6fVMH9p4p3oU6YMO3rf-12" target="o6fVMH9p4p3oU6YMO3rf-16">
          <mxGeometry relative="1" as="geometry" />
        </mxCell>
        <mxCell id="o6fVMH9p4p3oU6YMO3rf-12" value="Selecionar o botão de exclusão da conta" style="points=[[0.25,0,0],[0.5,0,0],[0.75,0,0],[1,0.25,0],[1,0.5,0],[1,0.75,0],[0.75,1,0],[0.5,1,0],[0.25,1,0],[0,0.75,0],[0,0.5,0],[0,0.25,0]];shape=mxgraph.bpmn.task;whiteSpace=wrap;rectStyle=rounded;size=10;html=1;container=1;expand=0;collapsible=0;taskMarker=user;" vertex="1" parent="KHh0WZ6_fX_Gbm5OiCX4-1">
          <mxGeometry x="417" y="210" width="120" height="80" as="geometry" />
        </mxCell>
        <mxCell id="o6fVMH9p4p3oU6YMO3rf-21" style="edgeStyle=orthogonalEdgeStyle;rounded=0;orthogonalLoop=1;jettySize=auto;html=1;exitX=1;exitY=0.5;exitDx=0;exitDy=0;exitPerimeter=0;entryX=0;entryY=0.5;entryDx=0;entryDy=0;entryPerimeter=0;" edge="1" parent="KHh0WZ6_fX_Gbm5OiCX4-1" source="o6fVMH9p4p3oU6YMO3rf-14" target="o6fVMH9p4p3oU6YMO3rf-18">
          <mxGeometry relative="1" as="geometry" />
        </mxCell>
        <mxCell id="o6fVMH9p4p3oU6YMO3rf-14" value="Salvar edição" style="points=[[0.25,0,0],[0.5,0,0],[0.75,0,0],[1,0.25,0],[1,0.5,0],[1,0.75,0],[0.75,1,0],[0.5,1,0],[0.25,1,0],[0,0.75,0],[0,0.5,0],[0,0.25,0]];shape=mxgraph.bpmn.task;whiteSpace=wrap;rectStyle=rounded;size=10;html=1;container=1;expand=0;collapsible=0;taskMarker=user;" vertex="1" parent="KHh0WZ6_fX_Gbm5OiCX4-1">
          <mxGeometry x="627" y="20" width="120" height="80" as="geometry" />
        </mxCell>
        <mxCell id="o6fVMH9p4p3oU6YMO3rf-20" style="edgeStyle=orthogonalEdgeStyle;rounded=0;orthogonalLoop=1;jettySize=auto;html=1;exitX=1;exitY=0.5;exitDx=0;exitDy=0;exitPerimeter=0;entryX=0;entryY=0.5;entryDx=0;entryDy=0;entryPerimeter=0;" edge="1" parent="KHh0WZ6_fX_Gbm5OiCX4-1" source="o6fVMH9p4p3oU6YMO3rf-16" target="o6fVMH9p4p3oU6YMO3rf-19">
          <mxGeometry relative="1" as="geometry" />
        </mxCell>
        <mxCell id="o6fVMH9p4p3oU6YMO3rf-16" value="Confirmar exclusão" style="points=[[0.25,0,0],[0.5,0,0],[0.75,0,0],[1,0.25,0],[1,0.5,0],[1,0.75,0],[0.75,1,0],[0.5,1,0],[0.25,1,0],[0,0.75,0],[0,0.5,0],[0,0.25,0]];shape=mxgraph.bpmn.task;whiteSpace=wrap;rectStyle=rounded;size=10;html=1;container=1;expand=0;collapsible=0;taskMarker=user;" vertex="1" parent="KHh0WZ6_fX_Gbm5OiCX4-1">
          <mxGeometry x="627" y="210" width="120" height="80" as="geometry" />
        </mxCell>
        <mxCell id="o6fVMH9p4p3oU6YMO3rf-18" value="" style="points=[[0.145,0.145,0],[0.5,0,0],[0.855,0.145,0],[1,0.5,0],[0.855,0.855,0],[0.5,1,0],[0.145,0.855,0],[0,0.5,0]];shape=mxgraph.bpmn.event;html=1;verticalLabelPosition=bottom;labelBackgroundColor=#ffffff;verticalAlign=top;align=center;perimeter=ellipsePerimeter;outlineConnect=0;aspect=fixed;outline=end;symbol=terminate2;" vertex="1" parent="KHh0WZ6_fX_Gbm5OiCX4-1">
          <mxGeometry x="810" y="35" width="50" height="50" as="geometry" />
        </mxCell>
        <mxCell id="o6fVMH9p4p3oU6YMO3rf-19" value="" style="points=[[0.145,0.145,0],[0.5,0,0],[0.855,0.145,0],[1,0.5,0],[0.855,0.855,0],[0.5,1,0],[0.145,0.855,0],[0,0.5,0]];shape=mxgraph.bpmn.event;html=1;verticalLabelPosition=bottom;labelBackgroundColor=#ffffff;verticalAlign=top;align=center;perimeter=ellipsePerimeter;outlineConnect=0;aspect=fixed;outline=end;symbol=terminate2;" vertex="1" parent="KHh0WZ6_fX_Gbm5OiCX4-1">
          <mxGeometry x="810" y="225" width="50" height="50" as="geometry" />
        </mxCell>
        <mxCell id="KHh0WZ6_fX_Gbm5OiCX4-2" value="Aplicação" style="swimlane;html=1;startSize=20;fontStyle=0;collapsible=0;horizontal=0;swimlaneLine=1;swimlaneFillColor=#ffffff;strokeWidth=2;whiteSpace=wrap;" vertex="1" parent="1">
          <mxGeometry x="-260" y="640" width="1120" height="260" as="geometry" />
        </mxCell>
        <mxCell id="t2BSpYhtlFed7M54ln59-2" value="Salvar exclusão&amp;nbsp;&lt;br&gt;do usuário&amp;nbsp;" style="shape=datastore;html=1;labelPosition=center;verticalLabelPosition=bottom;align=center;verticalAlign=top;" vertex="1" parent="KHh0WZ6_fX_Gbm5OiCX4-2">
          <mxGeometry x="657" y="70" width="60" height="70" as="geometry" />
        </mxCell>
        <mxCell id="t2BSpYhtlFed7M54ln59-3" value="Salvar edição do usuário" style="shape=datastore;html=1;labelPosition=center;verticalLabelPosition=bottom;align=center;verticalAlign=top;" vertex="1" parent="KHh0WZ6_fX_Gbm5OiCX4-2">
          <mxGeometry x="930" y="80" width="60" height="70" as="geometry" />
        </mxCell>
        <mxCell id="t2BSpYhtlFed7M54ln59-4" value="" style="dashed=1;dashPattern=8 4;endArrow=blockThin;endFill=1;startArrow=oval;startFill=0;endSize=6;startSize=4;html=1;rounded=0;exitX=0.5;exitY=1;exitDx=0;exitDy=0;exitPerimeter=0;entryX=0.5;entryY=0;entryDx=0;entryDy=0;" edge="1" parent="1" source="o6fVMH9p4p3oU6YMO3rf-16" target="t2BSpYhtlFed7M54ln59-2">
          <mxGeometry width="160" relative="1" as="geometry">
            <mxPoint x="280" y="680" as="sourcePoint" />
            <mxPoint x="440" y="680" as="targetPoint" />
          </mxGeometry>
        </mxCell>
        <mxCell id="t2BSpYhtlFed7M54ln59-5" value="" style="dashed=1;dashPattern=8 4;endArrow=blockThin;endFill=1;startArrow=oval;startFill=0;endSize=6;startSize=4;html=1;rounded=0;exitX=0.5;exitY=1;exitDx=0;exitDy=0;exitPerimeter=0;entryX=0.5;entryY=0;entryDx=0;entryDy=0;" edge="1" parent="1" source="o6fVMH9p4p3oU6YMO3rf-14" target="t2BSpYhtlFed7M54ln59-3">
          <mxGeometry width="160" relative="1" as="geometry">
            <mxPoint x="510" y="420" as="sourcePoint" />
            <mxPoint x="670" y="420" as="targetPoint" />
            <Array as="points">
              <mxPoint x="427" y="410" />
              <mxPoint x="700" y="410" />
            </Array>
          </mxGeometry>
        </mxCell>
      </root>
    </mxGraphModel>
  </diagram>
  <diagram id="K2d3c1nY_4SGk6wQUsbn" name="Acessar avaliação de perfil">
    <mxGraphModel dx="1900" dy="1219" grid="1" gridSize="10" guides="1" tooltips="1" connect="1" arrows="1" fold="1" page="0" pageScale="1" pageWidth="850" pageHeight="1100" math="0" shadow="0">
      <root>
        <mxCell id="0" />
        <mxCell id="1" parent="0" />
        <mxCell id="uczqH3T9HeW3uqHmlFKS-2" value="Aplicação" style="swimlane;html=1;startSize=20;fontStyle=0;collapsible=0;horizontal=0;swimlaneLine=1;swimlaneFillColor=#ffffff;strokeWidth=2;whiteSpace=wrap;" vertex="1" parent="1">
          <mxGeometry x="-80" y="180" width="980" height="220" as="geometry" />
        </mxCell>
        <mxCell id="DiqLr_Sf4sxSKh-5s2vv-7" value="Disponibilizar tela principal" style="points=[[0.25,0,0],[0.5,0,0],[0.75,0,0],[1,0.25,0],[1,0.5,0],[1,0.75,0],[0.75,1,0],[0.5,1,0],[0.25,1,0],[0,0.75,0],[0,0.5,0],[0,0.25,0]];shape=mxgraph.bpmn.task;whiteSpace=wrap;rectStyle=rounded;size=10;html=1;container=1;expand=0;collapsible=0;taskMarker=service;" vertex="1" parent="uczqH3T9HeW3uqHmlFKS-2">
          <mxGeometry x="120" y="70" width="120" height="80" as="geometry" />
        </mxCell>
        <mxCell id="DiqLr_Sf4sxSKh-5s2vv-8" value="Disponibilizar perfil do usuário logado" style="points=[[0.25,0,0],[0.5,0,0],[0.75,0,0],[1,0.25,0],[1,0.5,0],[1,0.75,0],[0.75,1,0],[0.5,1,0],[0.25,1,0],[0,0.75,0],[0,0.5,0],[0,0.25,0]];shape=mxgraph.bpmn.task;whiteSpace=wrap;rectStyle=rounded;size=10;html=1;container=1;expand=0;collapsible=0;taskMarker=service;" vertex="1" parent="uczqH3T9HeW3uqHmlFKS-2">
          <mxGeometry x="310" y="70" width="120" height="80" as="geometry" />
        </mxCell>
        <mxCell id="DiqLr_Sf4sxSKh-5s2vv-9" value="Disponibilizar tela de avaliações recebidas" style="points=[[0.25,0,0],[0.5,0,0],[0.75,0,0],[1,0.25,0],[1,0.5,0],[1,0.75,0],[0.75,1,0],[0.5,1,0],[0.25,1,0],[0,0.75,0],[0,0.5,0],[0,0.25,0]];shape=mxgraph.bpmn.task;whiteSpace=wrap;rectStyle=rounded;size=10;html=1;container=1;expand=0;collapsible=0;taskMarker=service;" vertex="1" parent="uczqH3T9HeW3uqHmlFKS-2">
          <mxGeometry x="500" y="70" width="120" height="80" as="geometry" />
        </mxCell>
        <mxCell id="DiqLr_Sf4sxSKh-5s2vv-10" value="Disponibilizar lista de avaliações recebidas" style="points=[[0.25,0,0],[0.5,0,0],[0.75,0,0],[1,0.25,0],[1,0.5,0],[1,0.75,0],[0.75,1,0],[0.5,1,0],[0.25,1,0],[0,0.75,0],[0,0.5,0],[0,0.25,0]];shape=mxgraph.bpmn.task;whiteSpace=wrap;rectStyle=rounded;size=10;html=1;container=1;expand=0;collapsible=0;taskMarker=service;" vertex="1" parent="uczqH3T9HeW3uqHmlFKS-2">
          <mxGeometry x="700" y="70" width="120" height="80" as="geometry" />
        </mxCell>
        <mxCell id="uczqH3T9HeW3uqHmlFKS-1" value="Usuário Final e Motorista" style="swimlane;html=1;startSize=20;fontStyle=0;collapsible=0;horizontal=0;swimlaneLine=1;swimlaneFillColor=#ffffff;strokeWidth=2;whiteSpace=wrap;" vertex="1" parent="1">
          <mxGeometry x="-80" y="-120" width="980" height="250" as="geometry" />
        </mxCell>
        <mxCell id="DiqLr_Sf4sxSKh-5s2vv-2" style="edgeStyle=orthogonalEdgeStyle;rounded=0;orthogonalLoop=1;jettySize=auto;html=1;exitX=1;exitY=0.5;exitDx=0;exitDy=0;exitPerimeter=0;entryX=0;entryY=0.5;entryDx=0;entryDy=0;entryPerimeter=0;" edge="1" parent="uczqH3T9HeW3uqHmlFKS-1" source="uczqH3T9HeW3uqHmlFKS-3" target="uczqH3T9HeW3uqHmlFKS-4">
          <mxGeometry relative="1" as="geometry" />
        </mxCell>
        <mxCell id="uczqH3T9HeW3uqHmlFKS-3" value="Acessar tela principal" style="points=[[0.25,0,0],[0.5,0,0],[0.75,0,0],[1,0.25,0],[1,0.5,0],[1,0.75,0],[0.75,1,0],[0.5,1,0],[0.25,1,0],[0,0.75,0],[0,0.5,0],[0,0.25,0]];shape=mxgraph.bpmn.task;whiteSpace=wrap;rectStyle=rounded;size=10;html=1;container=1;expand=0;collapsible=0;taskMarker=user;" vertex="1" parent="uczqH3T9HeW3uqHmlFKS-1">
          <mxGeometry x="120" y="90" width="120" height="80" as="geometry" />
        </mxCell>
        <mxCell id="DiqLr_Sf4sxSKh-5s2vv-3" style="edgeStyle=orthogonalEdgeStyle;rounded=0;orthogonalLoop=1;jettySize=auto;html=1;exitX=1;exitY=0.5;exitDx=0;exitDy=0;exitPerimeter=0;" edge="1" parent="uczqH3T9HeW3uqHmlFKS-1" source="uczqH3T9HeW3uqHmlFKS-4" target="uczqH3T9HeW3uqHmlFKS-5">
          <mxGeometry relative="1" as="geometry" />
        </mxCell>
        <mxCell id="uczqH3T9HeW3uqHmlFKS-4" value="Selecionar o perfil do usuário" style="points=[[0.25,0,0],[0.5,0,0],[0.75,0,0],[1,0.25,0],[1,0.5,0],[1,0.75,0],[0.75,1,0],[0.5,1,0],[0.25,1,0],[0,0.75,0],[0,0.5,0],[0,0.25,0]];shape=mxgraph.bpmn.task;whiteSpace=wrap;rectStyle=rounded;size=10;html=1;container=1;expand=0;collapsible=0;taskMarker=user;" vertex="1" parent="uczqH3T9HeW3uqHmlFKS-1">
          <mxGeometry x="310" y="90" width="120" height="80" as="geometry" />
        </mxCell>
        <mxCell id="DiqLr_Sf4sxSKh-5s2vv-4" style="edgeStyle=orthogonalEdgeStyle;rounded=0;orthogonalLoop=1;jettySize=auto;html=1;exitX=1;exitY=0.5;exitDx=0;exitDy=0;exitPerimeter=0;entryX=0;entryY=0.5;entryDx=0;entryDy=0;entryPerimeter=0;" edge="1" parent="uczqH3T9HeW3uqHmlFKS-1" source="uczqH3T9HeW3uqHmlFKS-5" target="uczqH3T9HeW3uqHmlFKS-6">
          <mxGeometry relative="1" as="geometry" />
        </mxCell>
        <mxCell id="uczqH3T9HeW3uqHmlFKS-5" value="Visualizar avaliações recebidas" style="points=[[0.25,0,0],[0.5,0,0],[0.75,0,0],[1,0.25,0],[1,0.5,0],[1,0.75,0],[0.75,1,0],[0.5,1,0],[0.25,1,0],[0,0.75,0],[0,0.5,0],[0,0.25,0]];shape=mxgraph.bpmn.task;whiteSpace=wrap;rectStyle=rounded;size=10;html=1;container=1;expand=0;collapsible=0;taskMarker=user;" vertex="1" parent="uczqH3T9HeW3uqHmlFKS-1">
          <mxGeometry x="500" y="90" width="120" height="80" as="geometry" />
        </mxCell>
        <mxCell id="DiqLr_Sf4sxSKh-5s2vv-6" style="edgeStyle=orthogonalEdgeStyle;rounded=0;orthogonalLoop=1;jettySize=auto;html=1;exitX=1;exitY=0.5;exitDx=0;exitDy=0;exitPerimeter=0;entryX=0;entryY=0.5;entryDx=0;entryDy=0;entryPerimeter=0;" edge="1" parent="uczqH3T9HeW3uqHmlFKS-1" source="uczqH3T9HeW3uqHmlFKS-6" target="uczqH3T9HeW3uqHmlFKS-7">
          <mxGeometry relative="1" as="geometry" />
        </mxCell>
        <mxCell id="uczqH3T9HeW3uqHmlFKS-6" value="Acessar Lista de avaliações&amp;nbsp;" style="points=[[0.25,0,0],[0.5,0,0],[0.75,0,0],[1,0.25,0],[1,0.5,0],[1,0.75,0],[0.75,1,0],[0.5,1,0],[0.25,1,0],[0,0.75,0],[0,0.5,0],[0,0.25,0]];shape=mxgraph.bpmn.task;whiteSpace=wrap;rectStyle=rounded;size=10;html=1;container=1;expand=0;collapsible=0;taskMarker=user;" vertex="1" parent="uczqH3T9HeW3uqHmlFKS-1">
          <mxGeometry x="700" y="90" width="120" height="80" as="geometry" />
        </mxCell>
        <mxCell id="uczqH3T9HeW3uqHmlFKS-7" value="" style="points=[[0.145,0.145,0],[0.5,0,0],[0.855,0.145,0],[1,0.5,0],[0.855,0.855,0],[0.5,1,0],[0.145,0.855,0],[0,0.5,0]];shape=mxgraph.bpmn.event;html=1;verticalLabelPosition=bottom;labelBackgroundColor=#ffffff;verticalAlign=top;align=center;perimeter=ellipsePerimeter;outlineConnect=0;aspect=fixed;outline=end;symbol=terminate2;" vertex="1" parent="uczqH3T9HeW3uqHmlFKS-1">
          <mxGeometry x="900" y="105" width="50" height="50" as="geometry" />
        </mxCell>
        <mxCell id="DiqLr_Sf4sxSKh-5s2vv-1" style="edgeStyle=orthogonalEdgeStyle;rounded=0;orthogonalLoop=1;jettySize=auto;html=1;exitX=1;exitY=0.5;exitDx=0;exitDy=0;exitPerimeter=0;entryX=0;entryY=0.5;entryDx=0;entryDy=0;entryPerimeter=0;" edge="1" parent="uczqH3T9HeW3uqHmlFKS-1" source="uczqH3T9HeW3uqHmlFKS-8" target="uczqH3T9HeW3uqHmlFKS-3">
          <mxGeometry relative="1" as="geometry" />
        </mxCell>
        <mxCell id="uczqH3T9HeW3uqHmlFKS-8" value="" style="points=[[0.145,0.145,0],[0.5,0,0],[0.855,0.145,0],[1,0.5,0],[0.855,0.855,0],[0.5,1,0],[0.145,0.855,0],[0,0.5,0]];shape=mxgraph.bpmn.event;html=1;verticalLabelPosition=bottom;labelBackgroundColor=#ffffff;verticalAlign=top;align=center;perimeter=ellipsePerimeter;outlineConnect=0;aspect=fixed;outline=standard;symbol=general;" vertex="1" parent="uczqH3T9HeW3uqHmlFKS-1">
          <mxGeometry x="40" y="105" width="50" height="50" as="geometry" />
        </mxCell>
        <mxCell id="DiqLr_Sf4sxSKh-5s2vv-13" value="" style="dashed=1;dashPattern=8 4;endArrow=blockThin;endFill=1;startArrow=oval;startFill=0;endSize=6;startSize=4;html=1;rounded=0;exitX=0.5;exitY=1;exitDx=0;exitDy=0;exitPerimeter=0;entryX=0.5;entryY=0;entryDx=0;entryDy=0;entryPerimeter=0;" edge="1" parent="uczqH3T9HeW3uqHmlFKS-1" target="DiqLr_Sf4sxSKh-5s2vv-9">
          <mxGeometry width="160" relative="1" as="geometry">
            <mxPoint x="559.29" y="170" as="sourcePoint" />
            <mxPoint x="559.29" y="370" as="targetPoint" />
          </mxGeometry>
        </mxCell>
        <mxCell id="DiqLr_Sf4sxSKh-5s2vv-11" value="" style="dashed=1;dashPattern=8 4;endArrow=blockThin;endFill=1;startArrow=oval;startFill=0;endSize=6;startSize=4;html=1;rounded=0;exitX=0.5;exitY=1;exitDx=0;exitDy=0;exitPerimeter=0;entryX=0.5;entryY=0;entryDx=0;entryDy=0;entryPerimeter=0;" edge="1" parent="1" source="uczqH3T9HeW3uqHmlFKS-3" target="DiqLr_Sf4sxSKh-5s2vv-7">
          <mxGeometry width="160" relative="1" as="geometry">
            <mxPoint x="60" y="160" as="sourcePoint" />
            <mxPoint x="220" y="160" as="targetPoint" />
          </mxGeometry>
        </mxCell>
        <mxCell id="DiqLr_Sf4sxSKh-5s2vv-12" value="" style="dashed=1;dashPattern=8 4;endArrow=blockThin;endFill=1;startArrow=oval;startFill=0;endSize=6;startSize=4;html=1;rounded=0;exitX=0.5;exitY=1;exitDx=0;exitDy=0;exitPerimeter=0;" edge="1" parent="1" source="uczqH3T9HeW3uqHmlFKS-4" target="DiqLr_Sf4sxSKh-5s2vv-8">
          <mxGeometry width="160" relative="1" as="geometry">
            <mxPoint x="110" y="60" as="sourcePoint" />
            <mxPoint x="110" y="260" as="targetPoint" />
          </mxGeometry>
        </mxCell>
        <mxCell id="DiqLr_Sf4sxSKh-5s2vv-14" value="" style="dashed=1;dashPattern=8 4;endArrow=blockThin;endFill=1;startArrow=oval;startFill=0;endSize=6;startSize=4;html=1;rounded=0;exitX=0.5;exitY=1;exitDx=0;exitDy=0;exitPerimeter=0;entryX=0.5;entryY=0;entryDx=0;entryDy=0;entryPerimeter=0;" edge="1" parent="1" source="uczqH3T9HeW3uqHmlFKS-6" target="DiqLr_Sf4sxSKh-5s2vv-10">
          <mxGeometry width="160" relative="1" as="geometry">
            <mxPoint x="630" y="210" as="sourcePoint" />
            <mxPoint x="790" y="210" as="targetPoint" />
          </mxGeometry>
        </mxCell>
      </root>
    </mxGraphModel>
  </diagram>
  <diagram id="g2d-eXfrbJbrUps1ewM4" name="Recuperação de senha">
    <mxGraphModel dx="1900" dy="1219" grid="1" gridSize="10" guides="1" tooltips="1" connect="1" arrows="1" fold="1" page="0" pageScale="1" pageWidth="850" pageHeight="1100" math="0" shadow="0">
      <root>
        <mxCell id="0" />
        <mxCell id="1" parent="0" />
        <mxCell id="xShUm1JmkIzGbJz0QU9B-1" value="Usuário Final e motorista" style="swimlane;html=1;startSize=20;fontStyle=0;collapsible=0;horizontal=0;swimlaneLine=1;swimlaneFillColor=#ffffff;strokeWidth=2;whiteSpace=wrap;" vertex="1" parent="1">
          <mxGeometry x="-90" y="-30" width="1090" height="230" as="geometry" />
        </mxCell>
        <mxCell id="z-cCprsRBBETSHHGv91U-4" style="edgeStyle=orthogonalEdgeStyle;rounded=0;orthogonalLoop=1;jettySize=auto;html=1;exitX=1;exitY=0.5;exitDx=0;exitDy=0;exitPerimeter=0;entryX=0;entryY=0.5;entryDx=0;entryDy=0;entryPerimeter=0;" edge="1" parent="xShUm1JmkIzGbJz0QU9B-1" source="xShUm1JmkIzGbJz0QU9B-3" target="xShUm1JmkIzGbJz0QU9B-4">
          <mxGeometry relative="1" as="geometry" />
        </mxCell>
        <mxCell id="xShUm1JmkIzGbJz0QU9B-3" value="Acessar tela de login" style="points=[[0.25,0,0],[0.5,0,0],[0.75,0,0],[1,0.25,0],[1,0.5,0],[1,0.75,0],[0.75,1,0],[0.5,1,0],[0.25,1,0],[0,0.75,0],[0,0.5,0],[0,0.25,0]];shape=mxgraph.bpmn.task;whiteSpace=wrap;rectStyle=rounded;size=10;html=1;container=1;expand=0;collapsible=0;taskMarker=user;" vertex="1" parent="xShUm1JmkIzGbJz0QU9B-1">
          <mxGeometry x="120" y="75" width="120" height="80" as="geometry" />
        </mxCell>
        <mxCell id="z-cCprsRBBETSHHGv91U-5" style="edgeStyle=orthogonalEdgeStyle;rounded=0;orthogonalLoop=1;jettySize=auto;html=1;exitX=1;exitY=0.5;exitDx=0;exitDy=0;exitPerimeter=0;" edge="1" parent="xShUm1JmkIzGbJz0QU9B-1" source="xShUm1JmkIzGbJz0QU9B-4" target="xShUm1JmkIzGbJz0QU9B-5">
          <mxGeometry relative="1" as="geometry" />
        </mxCell>
        <mxCell id="xShUm1JmkIzGbJz0QU9B-4" value="Clicar no botão de &quot;esqueci a senha&quot;" style="points=[[0.25,0,0],[0.5,0,0],[0.75,0,0],[1,0.25,0],[1,0.5,0],[1,0.75,0],[0.75,1,0],[0.5,1,0],[0.25,1,0],[0,0.75,0],[0,0.5,0],[0,0.25,0]];shape=mxgraph.bpmn.task;whiteSpace=wrap;rectStyle=rounded;size=10;html=1;container=1;expand=0;collapsible=0;taskMarker=user;" vertex="1" parent="xShUm1JmkIzGbJz0QU9B-1">
          <mxGeometry x="290" y="75" width="120" height="80" as="geometry" />
        </mxCell>
        <mxCell id="z-cCprsRBBETSHHGv91U-6" style="edgeStyle=orthogonalEdgeStyle;rounded=0;orthogonalLoop=1;jettySize=auto;html=1;exitX=1;exitY=0.5;exitDx=0;exitDy=0;exitPerimeter=0;entryX=0;entryY=0.5;entryDx=0;entryDy=0;entryPerimeter=0;" edge="1" parent="xShUm1JmkIzGbJz0QU9B-1" source="xShUm1JmkIzGbJz0QU9B-5" target="xShUm1JmkIzGbJz0QU9B-6">
          <mxGeometry relative="1" as="geometry" />
        </mxCell>
        <mxCell id="xShUm1JmkIzGbJz0QU9B-5" value="Adicionar o e-mail cadastrado" style="points=[[0.25,0,0],[0.5,0,0],[0.75,0,0],[1,0.25,0],[1,0.5,0],[1,0.75,0],[0.75,1,0],[0.5,1,0],[0.25,1,0],[0,0.75,0],[0,0.5,0],[0,0.25,0]];shape=mxgraph.bpmn.task;whiteSpace=wrap;rectStyle=rounded;size=10;html=1;container=1;expand=0;collapsible=0;taskMarker=user;" vertex="1" parent="xShUm1JmkIzGbJz0QU9B-1">
          <mxGeometry x="460" y="75" width="120" height="80" as="geometry" />
        </mxCell>
        <mxCell id="z-cCprsRBBETSHHGv91U-7" style="edgeStyle=orthogonalEdgeStyle;rounded=0;orthogonalLoop=1;jettySize=auto;html=1;exitX=1;exitY=0.5;exitDx=0;exitDy=0;exitPerimeter=0;" edge="1" parent="xShUm1JmkIzGbJz0QU9B-1" source="xShUm1JmkIzGbJz0QU9B-6" target="xShUm1JmkIzGbJz0QU9B-8">
          <mxGeometry relative="1" as="geometry" />
        </mxCell>
        <mxCell id="xShUm1JmkIzGbJz0QU9B-6" value="Abrir tela de edição da senha" style="points=[[0.25,0,0],[0.5,0,0],[0.75,0,0],[1,0.25,0],[1,0.5,0],[1,0.75,0],[0.75,1,0],[0.5,1,0],[0.25,1,0],[0,0.75,0],[0,0.5,0],[0,0.25,0]];shape=mxgraph.bpmn.task;whiteSpace=wrap;rectStyle=rounded;size=10;html=1;container=1;expand=0;collapsible=0;taskMarker=user;" vertex="1" parent="xShUm1JmkIzGbJz0QU9B-1">
          <mxGeometry x="630" y="75" width="120" height="80" as="geometry" />
        </mxCell>
        <mxCell id="z-cCprsRBBETSHHGv91U-3" style="edgeStyle=orthogonalEdgeStyle;rounded=0;orthogonalLoop=1;jettySize=auto;html=1;entryX=0;entryY=0.5;entryDx=0;entryDy=0;entryPerimeter=0;" edge="1" parent="xShUm1JmkIzGbJz0QU9B-1" source="xShUm1JmkIzGbJz0QU9B-7" target="xShUm1JmkIzGbJz0QU9B-3">
          <mxGeometry relative="1" as="geometry" />
        </mxCell>
        <mxCell id="xShUm1JmkIzGbJz0QU9B-7" value="" style="points=[[0.145,0.145,0],[0.5,0,0],[0.855,0.145,0],[1,0.5,0],[0.855,0.855,0],[0.5,1,0],[0.145,0.855,0],[0,0.5,0]];shape=mxgraph.bpmn.event;html=1;verticalLabelPosition=bottom;labelBackgroundColor=#ffffff;verticalAlign=top;align=center;perimeter=ellipsePerimeter;outlineConnect=0;aspect=fixed;outline=standard;symbol=general;" vertex="1" parent="xShUm1JmkIzGbJz0QU9B-1">
          <mxGeometry x="40" y="90" width="50" height="50" as="geometry" />
        </mxCell>
        <mxCell id="z-cCprsRBBETSHHGv91U-8" style="edgeStyle=orthogonalEdgeStyle;rounded=0;orthogonalLoop=1;jettySize=auto;html=1;exitX=1;exitY=0.5;exitDx=0;exitDy=0;exitPerimeter=0;entryX=0;entryY=0.5;entryDx=0;entryDy=0;entryPerimeter=0;" edge="1" parent="xShUm1JmkIzGbJz0QU9B-1" source="xShUm1JmkIzGbJz0QU9B-8" target="xShUm1JmkIzGbJz0QU9B-9">
          <mxGeometry relative="1" as="geometry" />
        </mxCell>
        <mxCell id="xShUm1JmkIzGbJz0QU9B-8" value="Salvar" style="points=[[0.25,0,0],[0.5,0,0],[0.75,0,0],[1,0.25,0],[1,0.5,0],[1,0.75,0],[0.75,1,0],[0.5,1,0],[0.25,1,0],[0,0.75,0],[0,0.5,0],[0,0.25,0]];shape=mxgraph.bpmn.task;whiteSpace=wrap;rectStyle=rounded;size=10;html=1;container=1;expand=0;collapsible=0;taskMarker=user;" vertex="1" parent="xShUm1JmkIzGbJz0QU9B-1">
          <mxGeometry x="810" y="75" width="120" height="80" as="geometry" />
        </mxCell>
        <mxCell id="xShUm1JmkIzGbJz0QU9B-9" value="" style="points=[[0.145,0.145,0],[0.5,0,0],[0.855,0.145,0],[1,0.5,0],[0.855,0.855,0],[0.5,1,0],[0.145,0.855,0],[0,0.5,0]];shape=mxgraph.bpmn.event;html=1;verticalLabelPosition=bottom;labelBackgroundColor=#ffffff;verticalAlign=top;align=center;perimeter=ellipsePerimeter;outlineConnect=0;aspect=fixed;outline=end;symbol=terminate2;" vertex="1" parent="xShUm1JmkIzGbJz0QU9B-1">
          <mxGeometry x="990" y="90" width="50" height="50" as="geometry" />
        </mxCell>
        <mxCell id="xShUm1JmkIzGbJz0QU9B-2" value="Aplicação" style="swimlane;html=1;startSize=20;fontStyle=0;collapsible=0;horizontal=0;swimlaneLine=1;swimlaneFillColor=#ffffff;strokeWidth=2;whiteSpace=wrap;" vertex="1" parent="1">
          <mxGeometry x="-90" y="260" width="1090" height="220" as="geometry" />
        </mxCell>
        <mxCell id="z-cCprsRBBETSHHGv91U-9" value="" style="dashed=1;dashPattern=8 4;endArrow=blockThin;endFill=1;startArrow=oval;startFill=0;endSize=6;startSize=4;html=1;rounded=0;exitX=0.5;exitY=1;exitDx=0;exitDy=0;exitPerimeter=0;" edge="1" parent="xShUm1JmkIzGbJz0QU9B-2" source="xShUm1JmkIzGbJz0QU9B-8">
          <mxGeometry width="160" relative="1" as="geometry">
            <mxPoint x="830" y="60" as="sourcePoint" />
            <mxPoint x="870" y="60" as="targetPoint" />
          </mxGeometry>
        </mxCell>
        <mxCell id="z-cCprsRBBETSHHGv91U-10" value="Salvar nova senha&amp;nbsp;" style="shape=datastore;html=1;labelPosition=center;verticalLabelPosition=bottom;align=center;verticalAlign=top;" vertex="1" parent="xShUm1JmkIzGbJz0QU9B-2">
          <mxGeometry x="840" y="60" width="60" height="70" as="geometry" />
        </mxCell>
      </root>
    </mxGraphModel>
  </diagram>
  <diagram id="Lw1SxfWxesVu1TiOVBcp" name="Avaliações Motorista">
    <mxGraphModel dx="2815" dy="482" grid="1" gridSize="10" guides="1" tooltips="1" connect="1" arrows="1" fold="1" page="0" pageScale="1" pageWidth="850" pageHeight="1100" math="0" shadow="0">
      <root>
        <mxCell id="0" />
        <mxCell id="1" parent="0" />
        <mxCell id="YdjjrE3S595pU8GhnjJa-1" value="Aplicação" style="swimlane;html=1;startSize=20;fontStyle=0;collapsible=0;horizontal=0;swimlaneLine=1;swimlaneFillColor=#ffffff;strokeWidth=2;whiteSpace=wrap;" vertex="1" parent="1">
          <mxGeometry x="-1090" y="890" width="1410" height="230" as="geometry" />
        </mxCell>
        <mxCell id="yCeBDnbWYPa8M_fKuvuN-4" style="edgeStyle=orthogonalEdgeStyle;rounded=0;orthogonalLoop=1;jettySize=auto;html=1;exitX=1;exitY=0.5;exitDx=0;exitDy=0;exitPerimeter=0;entryX=0;entryY=0.5;entryDx=0;entryDy=0;" edge="1" parent="YdjjrE3S595pU8GhnjJa-1" source="yCeBDnbWYPa8M_fKuvuN-2" target="yCeBDnbWYPa8M_fKuvuN-3">
          <mxGeometry relative="1" as="geometry" />
        </mxCell>
        <mxCell id="yCeBDnbWYPa8M_fKuvuN-2" value="Alteração do status da corrida" style="points=[[0.25,0,0],[0.5,0,0],[0.75,0,0],[1,0.25,0],[1,0.5,0],[1,0.75,0],[0.75,1,0],[0.5,1,0],[0.25,1,0],[0,0.75,0],[0,0.5,0],[0,0.25,0]];shape=mxgraph.bpmn.task;whiteSpace=wrap;rectStyle=rounded;size=10;html=1;container=1;expand=0;collapsible=0;taskMarker=service;" vertex="1" parent="YdjjrE3S595pU8GhnjJa-1">
          <mxGeometry x="185" y="50" width="120" height="80" as="geometry" />
        </mxCell>
        <mxCell id="yCeBDnbWYPa8M_fKuvuN-3" value="Salvar alteração&amp;nbsp;&lt;br&gt;de status" style="shape=datastore;html=1;labelPosition=center;verticalLabelPosition=bottom;align=center;verticalAlign=top;" vertex="1" parent="YdjjrE3S595pU8GhnjJa-1">
          <mxGeometry x="390" y="50" width="60" height="80" as="geometry" />
        </mxCell>
        <mxCell id="yCeBDnbWYPa8M_fKuvuN-8" value="Disponibilizar tela de formulário de avaliação" style="points=[[0.25,0,0],[0.5,0,0],[0.75,0,0],[1,0.25,0],[1,0.5,0],[1,0.75,0],[0.75,1,0],[0.5,1,0],[0.25,1,0],[0,0.75,0],[0,0.5,0],[0,0.25,0]];shape=mxgraph.bpmn.task;whiteSpace=wrap;rectStyle=rounded;size=10;html=1;container=1;expand=0;collapsible=0;taskMarker=service;" vertex="1" parent="YdjjrE3S595pU8GhnjJa-1">
          <mxGeometry x="829" y="50" width="120" height="80" as="geometry" />
        </mxCell>
        <mxCell id="yCeBDnbWYPa8M_fKuvuN-12" value="Salvar avaliação" style="shape=datastore;html=1;labelPosition=center;verticalLabelPosition=bottom;align=center;verticalAlign=top;" vertex="1" parent="YdjjrE3S595pU8GhnjJa-1">
          <mxGeometry x="1089" y="50" width="60" height="80" as="geometry" />
        </mxCell>
        <mxCell id="0vFWAF4rvn_43gPqwgJN-24" value="Motorista" style="swimlane;html=1;startSize=20;fontStyle=0;collapsible=0;horizontal=0;swimlaneLine=1;swimlaneFillColor=#ffffff;strokeWidth=2;whiteSpace=wrap;" vertex="1" parent="1">
          <mxGeometry x="-1090" y="550" width="1410" height="310" as="geometry" />
        </mxCell>
        <mxCell id="0vFWAF4rvn_43gPqwgJN-25" style="edgeStyle=orthogonalEdgeStyle;rounded=0;orthogonalLoop=1;jettySize=auto;html=1;exitX=1;exitY=0.5;exitDx=0;exitDy=0;exitPerimeter=0;entryX=0;entryY=0.5;entryDx=0;entryDy=0;entryPerimeter=0;" edge="1" parent="0vFWAF4rvn_43gPqwgJN-24" target="0vFWAF4rvn_43gPqwgJN-26">
          <mxGeometry relative="1" as="geometry">
            <mxPoint x="115" y="152.5" as="sourcePoint" />
          </mxGeometry>
        </mxCell>
        <mxCell id="QAt_KJgoSDnuFqT9ZoAF-3" style="edgeStyle=orthogonalEdgeStyle;rounded=0;orthogonalLoop=1;jettySize=auto;html=1;exitX=1;exitY=0.5;exitDx=0;exitDy=0;exitPerimeter=0;entryX=0;entryY=0.5;entryDx=0;entryDy=0;entryPerimeter=0;" edge="1" parent="0vFWAF4rvn_43gPqwgJN-24" source="0vFWAF4rvn_43gPqwgJN-26" target="QAt_KJgoSDnuFqT9ZoAF-1">
          <mxGeometry relative="1" as="geometry" />
        </mxCell>
        <mxCell id="0vFWAF4rvn_43gPqwgJN-26" value="Confirmar finalização da corrida" style="points=[[0.25,0,0],[0.5,0,0],[0.75,0,0],[1,0.25,0],[1,0.5,0],[1,0.75,0],[0.75,1,0],[0.5,1,0],[0.25,1,0],[0,0.75,0],[0,0.5,0],[0,0.25,0]];shape=mxgraph.bpmn.task;whiteSpace=wrap;rectStyle=rounded;size=10;html=1;container=1;expand=0;collapsible=0;taskMarker=user;" vertex="1" parent="0vFWAF4rvn_43gPqwgJN-24">
          <mxGeometry x="185" y="112.5" width="120" height="80" as="geometry" />
        </mxCell>
        <mxCell id="0vFWAF4rvn_43gPqwgJN-28" value="Gostaria de avaliar o usuário?" style="points=[[0.25,0.25,0],[0.5,0,0],[0.75,0.25,0],[1,0.5,0],[0.75,0.75,0],[0.5,1,0],[0.25,0.75,0],[0,0.5,0]];shape=mxgraph.bpmn.gateway2;html=1;verticalLabelPosition=bottom;labelBackgroundColor=#ffffff;verticalAlign=top;align=center;perimeter=rhombusPerimeter;outlineConnect=0;outline=none;symbol=none;" vertex="1" parent="0vFWAF4rvn_43gPqwgJN-24">
          <mxGeometry x="584" y="127.5" width="50" height="50" as="geometry" />
        </mxCell>
        <mxCell id="yCeBDnbWYPa8M_fKuvuN-6" style="edgeStyle=orthogonalEdgeStyle;rounded=0;orthogonalLoop=1;jettySize=auto;html=1;exitX=1;exitY=0.5;exitDx=0;exitDy=0;exitPerimeter=0;entryX=0;entryY=0.5;entryDx=0;entryDy=0;entryPerimeter=0;" edge="1" parent="0vFWAF4rvn_43gPqwgJN-24" source="0vFWAF4rvn_43gPqwgJN-31" target="yCeBDnbWYPa8M_fKuvuN-5">
          <mxGeometry relative="1" as="geometry" />
        </mxCell>
        <mxCell id="0vFWAF4rvn_43gPqwgJN-31" value="Preenche formulário de avaliação" style="points=[[0.25,0,0],[0.5,0,0],[0.75,0,0],[1,0.25,0],[1,0.5,0],[1,0.75,0],[0.75,1,0],[0.5,1,0],[0.25,1,0],[0,0.75,0],[0,0.5,0],[0,0.25,0]];shape=mxgraph.bpmn.task;whiteSpace=wrap;rectStyle=rounded;size=10;html=1;container=1;expand=0;collapsible=0;taskMarker=user;" vertex="1" parent="0vFWAF4rvn_43gPqwgJN-24">
          <mxGeometry x="829" y="17.5" width="120" height="80" as="geometry" />
        </mxCell>
        <mxCell id="0vFWAF4rvn_43gPqwgJN-32" style="edgeStyle=orthogonalEdgeStyle;rounded=0;orthogonalLoop=1;jettySize=auto;html=1;exitX=0.5;exitY=0;exitDx=0;exitDy=0;exitPerimeter=0;entryX=0;entryY=0.5;entryDx=0;entryDy=0;entryPerimeter=0;" edge="1" parent="0vFWAF4rvn_43gPqwgJN-24" source="0vFWAF4rvn_43gPqwgJN-28" target="0vFWAF4rvn_43gPqwgJN-31">
          <mxGeometry relative="1" as="geometry" />
        </mxCell>
        <mxCell id="0vFWAF4rvn_43gPqwgJN-33" value="" style="points=[[0.145,0.145,0],[0.5,0,0],[0.855,0.145,0],[1,0.5,0],[0.855,0.855,0],[0.5,1,0],[0.145,0.855,0],[0,0.5,0]];shape=mxgraph.bpmn.event;html=1;verticalLabelPosition=bottom;labelBackgroundColor=#ffffff;verticalAlign=top;align=center;perimeter=ellipsePerimeter;outlineConnect=0;aspect=fixed;outline=end;symbol=terminate2;" vertex="1" parent="0vFWAF4rvn_43gPqwgJN-24">
          <mxGeometry x="729" y="242.5" width="50" height="50" as="geometry" />
        </mxCell>
        <mxCell id="0vFWAF4rvn_43gPqwgJN-34" style="edgeStyle=orthogonalEdgeStyle;rounded=0;orthogonalLoop=1;jettySize=auto;html=1;exitX=0.5;exitY=1;exitDx=0;exitDy=0;exitPerimeter=0;entryX=0;entryY=0.5;entryDx=0;entryDy=0;entryPerimeter=0;" edge="1" parent="0vFWAF4rvn_43gPqwgJN-24" source="0vFWAF4rvn_43gPqwgJN-28" target="0vFWAF4rvn_43gPqwgJN-33">
          <mxGeometry relative="1" as="geometry">
            <mxPoint x="754" y="267.5" as="targetPoint" />
          </mxGeometry>
        </mxCell>
        <mxCell id="0vFWAF4rvn_43gPqwgJN-35" value="" style="points=[[0.145,0.145,0],[0.5,0,0],[0.855,0.145,0],[1,0.5,0],[0.855,0.855,0],[0.5,1,0],[0.145,0.855,0],[0,0.5,0]];shape=mxgraph.bpmn.event;html=1;verticalLabelPosition=bottom;labelBackgroundColor=#ffffff;verticalAlign=top;align=center;perimeter=ellipsePerimeter;outlineConnect=0;aspect=fixed;outline=end;symbol=terminate2;" vertex="1" parent="0vFWAF4rvn_43gPqwgJN-24">
          <mxGeometry x="1249" y="32.5" width="50" height="50" as="geometry" />
        </mxCell>
        <mxCell id="yCeBDnbWYPa8M_fKuvuN-7" style="edgeStyle=orthogonalEdgeStyle;rounded=0;orthogonalLoop=1;jettySize=auto;html=1;exitX=1;exitY=0.5;exitDx=0;exitDy=0;exitPerimeter=0;entryX=0;entryY=0.5;entryDx=0;entryDy=0;entryPerimeter=0;" edge="1" parent="0vFWAF4rvn_43gPqwgJN-24" source="yCeBDnbWYPa8M_fKuvuN-5" target="0vFWAF4rvn_43gPqwgJN-35">
          <mxGeometry relative="1" as="geometry" />
        </mxCell>
        <mxCell id="yCeBDnbWYPa8M_fKuvuN-5" value="Enviar avaliação" style="points=[[0.25,0,0],[0.5,0,0],[0.75,0,0],[1,0.25,0],[1,0.5,0],[1,0.75,0],[0.75,1,0],[0.5,1,0],[0.25,1,0],[0,0.75,0],[0,0.5,0],[0,0.25,0]];shape=mxgraph.bpmn.task;whiteSpace=wrap;rectStyle=rounded;size=10;html=1;container=1;expand=0;collapsible=0;taskMarker=user;" vertex="1" parent="0vFWAF4rvn_43gPqwgJN-24">
          <mxGeometry x="1059" y="17.5" width="120" height="80" as="geometry" />
        </mxCell>
        <mxCell id="6mICTd-7puNwbwqCLuVx-1" value="Corrida Finalizada" style="points=[[0.145,0.145,0],[0.5,0,0],[0.855,0.145,0],[1,0.5,0],[0.855,0.855,0],[0.5,1,0],[0.145,0.855,0],[0,0.5,0]];shape=mxgraph.bpmn.event;html=1;verticalLabelPosition=bottom;labelBackgroundColor=#ffffff;verticalAlign=top;align=center;perimeter=ellipsePerimeter;outlineConnect=0;aspect=fixed;outline=standard;symbol=general;" vertex="1" parent="0vFWAF4rvn_43gPqwgJN-24">
          <mxGeometry x="70" y="127.5" width="50" height="50" as="geometry" />
        </mxCell>
        <mxCell id="QAt_KJgoSDnuFqT9ZoAF-4" style="edgeStyle=orthogonalEdgeStyle;rounded=0;orthogonalLoop=1;jettySize=auto;html=1;exitX=1;exitY=0.5;exitDx=0;exitDy=0;exitPerimeter=0;entryX=0;entryY=0.5;entryDx=0;entryDy=0;entryPerimeter=0;" edge="1" parent="0vFWAF4rvn_43gPqwgJN-24" source="QAt_KJgoSDnuFqT9ZoAF-1" target="0vFWAF4rvn_43gPqwgJN-28">
          <mxGeometry relative="1" as="geometry" />
        </mxCell>
        <mxCell id="QAt_KJgoSDnuFqT9ZoAF-1" value="Status alterado para &lt;br&gt;&quot;Corrida Finalizada&quot;" style="points=[[0.145,0.145,0],[0.5,0,0],[0.855,0.145,0],[1,0.5,0],[0.855,0.855,0],[0.5,1,0],[0.145,0.855,0],[0,0.5,0]];shape=mxgraph.bpmn.event;html=1;verticalLabelPosition=bottom;labelBackgroundColor=#ffffff;verticalAlign=top;align=center;perimeter=ellipsePerimeter;outlineConnect=0;aspect=fixed;outline=catching;symbol=message;" vertex="1" parent="0vFWAF4rvn_43gPqwgJN-24">
          <mxGeometry x="395" y="127.5" width="50" height="50" as="geometry" />
        </mxCell>
        <mxCell id="yCeBDnbWYPa8M_fKuvuN-1" value="" style="dashed=1;dashPattern=8 4;endArrow=blockThin;endFill=1;startArrow=oval;startFill=0;endSize=6;startSize=4;html=1;rounded=0;exitX=0.5;exitY=1;exitDx=0;exitDy=0;exitPerimeter=0;entryX=0.5;entryY=0;entryDx=0;entryDy=0;entryPerimeter=0;" edge="1" parent="1" source="0vFWAF4rvn_43gPqwgJN-26" target="yCeBDnbWYPa8M_fKuvuN-2">
          <mxGeometry width="160" relative="1" as="geometry">
            <mxPoint x="-910" y="930" as="sourcePoint" />
            <mxPoint x="-845" y="930" as="targetPoint" />
          </mxGeometry>
        </mxCell>
        <mxCell id="yCeBDnbWYPa8M_fKuvuN-9" value="" style="dashed=1;dashPattern=8 4;endArrow=blockThin;endFill=1;startArrow=oval;startFill=0;endSize=6;startSize=4;html=1;rounded=0;exitX=0.5;exitY=1;exitDx=0;exitDy=0;exitPerimeter=0;entryX=0.5;entryY=0;entryDx=0;entryDy=0;entryPerimeter=0;" edge="1" parent="1" source="0vFWAF4rvn_43gPqwgJN-31" target="yCeBDnbWYPa8M_fKuvuN-8">
          <mxGeometry width="160" relative="1" as="geometry">
            <mxPoint x="-507" y="780" as="sourcePoint" />
            <mxPoint x="-347" y="780" as="targetPoint" />
          </mxGeometry>
        </mxCell>
        <mxCell id="yCeBDnbWYPa8M_fKuvuN-11" value="" style="dashed=1;dashPattern=8 4;endArrow=blockThin;endFill=1;startArrow=oval;startFill=0;endSize=6;startSize=4;html=1;rounded=0;exitX=0.5;exitY=1;exitDx=0;exitDy=0;exitPerimeter=0;entryX=0.5;entryY=0;entryDx=0;entryDy=0;" edge="1" parent="1" source="yCeBDnbWYPa8M_fKuvuN-5" target="yCeBDnbWYPa8M_fKuvuN-12">
          <mxGeometry width="160" relative="1" as="geometry">
            <mxPoint x="-247" y="810" as="sourcePoint" />
            <mxPoint x="-217" y="940" as="targetPoint" />
          </mxGeometry>
        </mxCell>
        <mxCell id="QAt_KJgoSDnuFqT9ZoAF-2" value="" style="dashed=1;dashPattern=8 4;endArrow=blockThin;endFill=1;startArrow=oval;startFill=0;endSize=6;startSize=4;html=1;rounded=0;entryX=0.5;entryY=1;entryDx=0;entryDy=0;entryPerimeter=0;exitX=0.5;exitY=0;exitDx=0;exitDy=0;exitPerimeter=0;" edge="1" parent="1" source="yCeBDnbWYPa8M_fKuvuN-3" target="QAt_KJgoSDnuFqT9ZoAF-1">
          <mxGeometry width="160" relative="1" as="geometry">
            <mxPoint x="-680" y="940" as="sourcePoint" />
            <mxPoint x="-550" y="800" as="targetPoint" />
          </mxGeometry>
        </mxCell>
      </root>
    </mxGraphModel>
  </diagram>
  <diagram name="Avaliações Usuário" id="umLi0YrmVeHc5Wq2zBav">
    <mxGraphModel dx="2950" dy="555" grid="1" gridSize="10" guides="1" tooltips="1" connect="1" arrows="1" fold="1" page="0" pageScale="1" pageWidth="850" pageHeight="1100" math="0" shadow="0">
      <root>
        <mxCell id="cFxlyyZ_PT-G9cdDTt3e-0" />
        <mxCell id="cFxlyyZ_PT-G9cdDTt3e-1" parent="cFxlyyZ_PT-G9cdDTt3e-0" />
        <mxCell id="cFxlyyZ_PT-G9cdDTt3e-2" value="Aplicação" style="swimlane;html=1;startSize=20;fontStyle=0;collapsible=0;horizontal=0;swimlaneLine=1;swimlaneFillColor=#ffffff;strokeWidth=2;whiteSpace=wrap;" vertex="1" parent="cFxlyyZ_PT-G9cdDTt3e-1">
          <mxGeometry x="-1090" y="890" width="1070" height="230" as="geometry" />
        </mxCell>
        <mxCell id="cFxlyyZ_PT-G9cdDTt3e-6" value="Disponibilizar tela de formulário de avaliação" style="points=[[0.25,0,0],[0.5,0,0],[0.75,0,0],[1,0.25,0],[1,0.5,0],[1,0.75,0],[0.75,1,0],[0.5,1,0],[0.25,1,0],[0,0.75,0],[0,0.5,0],[0,0.25,0]];shape=mxgraph.bpmn.task;whiteSpace=wrap;rectStyle=rounded;size=10;html=1;container=1;expand=0;collapsible=0;taskMarker=service;" vertex="1" parent="cFxlyyZ_PT-G9cdDTt3e-2">
          <mxGeometry x="516" y="50" width="120" height="80" as="geometry" />
        </mxCell>
        <mxCell id="cFxlyyZ_PT-G9cdDTt3e-7" value="Salvar avaliação" style="shape=datastore;html=1;labelPosition=center;verticalLabelPosition=bottom;align=center;verticalAlign=top;" vertex="1" parent="cFxlyyZ_PT-G9cdDTt3e-2">
          <mxGeometry x="776" y="50" width="60" height="80" as="geometry" />
        </mxCell>
        <mxCell id="cFxlyyZ_PT-G9cdDTt3e-8" value="Motorista" style="swimlane;html=1;startSize=20;fontStyle=0;collapsible=0;horizontal=0;swimlaneLine=1;swimlaneFillColor=#ffffff;strokeWidth=2;whiteSpace=wrap;" vertex="1" parent="cFxlyyZ_PT-G9cdDTt3e-1">
          <mxGeometry x="-1090" y="550" width="1070" height="310" as="geometry" />
        </mxCell>
        <mxCell id="cFxlyyZ_PT-G9cdDTt3e-12" value="Gostaria de avaliar o usuário?" style="points=[[0.25,0.25,0],[0.5,0,0],[0.75,0.25,0],[1,0.5,0],[0.75,0.75,0],[0.5,1,0],[0.25,0.75,0],[0,0.5,0]];shape=mxgraph.bpmn.gateway2;html=1;verticalLabelPosition=bottom;labelBackgroundColor=#ffffff;verticalAlign=top;align=center;perimeter=rhombusPerimeter;outlineConnect=0;outline=none;symbol=none;" vertex="1" parent="cFxlyyZ_PT-G9cdDTt3e-8">
          <mxGeometry x="271" y="127.5" width="50" height="50" as="geometry" />
        </mxCell>
        <mxCell id="cFxlyyZ_PT-G9cdDTt3e-13" style="edgeStyle=orthogonalEdgeStyle;rounded=0;orthogonalLoop=1;jettySize=auto;html=1;exitX=1;exitY=0.5;exitDx=0;exitDy=0;exitPerimeter=0;entryX=0;entryY=0.5;entryDx=0;entryDy=0;entryPerimeter=0;" edge="1" parent="cFxlyyZ_PT-G9cdDTt3e-8" source="cFxlyyZ_PT-G9cdDTt3e-14" target="cFxlyyZ_PT-G9cdDTt3e-20">
          <mxGeometry relative="1" as="geometry" />
        </mxCell>
        <mxCell id="cFxlyyZ_PT-G9cdDTt3e-14" value="Preenche formulário de avaliação" style="points=[[0.25,0,0],[0.5,0,0],[0.75,0,0],[1,0.25,0],[1,0.5,0],[1,0.75,0],[0.75,1,0],[0.5,1,0],[0.25,1,0],[0,0.75,0],[0,0.5,0],[0,0.25,0]];shape=mxgraph.bpmn.task;whiteSpace=wrap;rectStyle=rounded;size=10;html=1;container=1;expand=0;collapsible=0;taskMarker=user;" vertex="1" parent="cFxlyyZ_PT-G9cdDTt3e-8">
          <mxGeometry x="516" y="17.5" width="120" height="80" as="geometry" />
        </mxCell>
        <mxCell id="cFxlyyZ_PT-G9cdDTt3e-15" style="edgeStyle=orthogonalEdgeStyle;rounded=0;orthogonalLoop=1;jettySize=auto;html=1;exitX=0.5;exitY=0;exitDx=0;exitDy=0;exitPerimeter=0;entryX=0;entryY=0.5;entryDx=0;entryDy=0;entryPerimeter=0;" edge="1" parent="cFxlyyZ_PT-G9cdDTt3e-8" source="cFxlyyZ_PT-G9cdDTt3e-12" target="cFxlyyZ_PT-G9cdDTt3e-14">
          <mxGeometry relative="1" as="geometry" />
        </mxCell>
        <mxCell id="cFxlyyZ_PT-G9cdDTt3e-16" value="" style="points=[[0.145,0.145,0],[0.5,0,0],[0.855,0.145,0],[1,0.5,0],[0.855,0.855,0],[0.5,1,0],[0.145,0.855,0],[0,0.5,0]];shape=mxgraph.bpmn.event;html=1;verticalLabelPosition=bottom;labelBackgroundColor=#ffffff;verticalAlign=top;align=center;perimeter=ellipsePerimeter;outlineConnect=0;aspect=fixed;outline=end;symbol=terminate2;" vertex="1" parent="cFxlyyZ_PT-G9cdDTt3e-8">
          <mxGeometry x="416" y="242.5" width="50" height="50" as="geometry" />
        </mxCell>
        <mxCell id="cFxlyyZ_PT-G9cdDTt3e-17" style="edgeStyle=orthogonalEdgeStyle;rounded=0;orthogonalLoop=1;jettySize=auto;html=1;exitX=0.5;exitY=1;exitDx=0;exitDy=0;exitPerimeter=0;entryX=0;entryY=0.5;entryDx=0;entryDy=0;entryPerimeter=0;" edge="1" parent="cFxlyyZ_PT-G9cdDTt3e-8" source="cFxlyyZ_PT-G9cdDTt3e-12" target="cFxlyyZ_PT-G9cdDTt3e-16">
          <mxGeometry relative="1" as="geometry">
            <mxPoint x="441" y="267.5" as="targetPoint" />
          </mxGeometry>
        </mxCell>
        <mxCell id="cFxlyyZ_PT-G9cdDTt3e-18" value="" style="points=[[0.145,0.145,0],[0.5,0,0],[0.855,0.145,0],[1,0.5,0],[0.855,0.855,0],[0.5,1,0],[0.145,0.855,0],[0,0.5,0]];shape=mxgraph.bpmn.event;html=1;verticalLabelPosition=bottom;labelBackgroundColor=#ffffff;verticalAlign=top;align=center;perimeter=ellipsePerimeter;outlineConnect=0;aspect=fixed;outline=end;symbol=terminate2;" vertex="1" parent="cFxlyyZ_PT-G9cdDTt3e-8">
          <mxGeometry x="936" y="32.5" width="50" height="50" as="geometry" />
        </mxCell>
        <mxCell id="cFxlyyZ_PT-G9cdDTt3e-19" style="edgeStyle=orthogonalEdgeStyle;rounded=0;orthogonalLoop=1;jettySize=auto;html=1;exitX=1;exitY=0.5;exitDx=0;exitDy=0;exitPerimeter=0;entryX=0;entryY=0.5;entryDx=0;entryDy=0;entryPerimeter=0;" edge="1" parent="cFxlyyZ_PT-G9cdDTt3e-8" source="cFxlyyZ_PT-G9cdDTt3e-20" target="cFxlyyZ_PT-G9cdDTt3e-18">
          <mxGeometry relative="1" as="geometry" />
        </mxCell>
        <mxCell id="cFxlyyZ_PT-G9cdDTt3e-20" value="Enviar avaliação" style="points=[[0.25,0,0],[0.5,0,0],[0.75,0,0],[1,0.25,0],[1,0.5,0],[1,0.75,0],[0.75,1,0],[0.5,1,0],[0.25,1,0],[0,0.75,0],[0,0.5,0],[0,0.25,0]];shape=mxgraph.bpmn.task;whiteSpace=wrap;rectStyle=rounded;size=10;html=1;container=1;expand=0;collapsible=0;taskMarker=user;" vertex="1" parent="cFxlyyZ_PT-G9cdDTt3e-8">
          <mxGeometry x="746" y="17.5" width="120" height="80" as="geometry" />
        </mxCell>
        <mxCell id="cFxlyyZ_PT-G9cdDTt3e-22" style="edgeStyle=orthogonalEdgeStyle;rounded=0;orthogonalLoop=1;jettySize=auto;html=1;exitX=1;exitY=0.5;exitDx=0;exitDy=0;exitPerimeter=0;entryX=0;entryY=0.5;entryDx=0;entryDy=0;entryPerimeter=0;" edge="1" parent="cFxlyyZ_PT-G9cdDTt3e-8" source="cFxlyyZ_PT-G9cdDTt3e-23" target="cFxlyyZ_PT-G9cdDTt3e-12">
          <mxGeometry relative="1" as="geometry" />
        </mxCell>
        <mxCell id="cFxlyyZ_PT-G9cdDTt3e-23" value="Status alterado para &lt;br&gt;&quot;Corrida Finalizada&quot;" style="points=[[0.145,0.145,0],[0.5,0,0],[0.855,0.145,0],[1,0.5,0],[0.855,0.855,0],[0.5,1,0],[0.145,0.855,0],[0,0.5,0]];shape=mxgraph.bpmn.event;html=1;verticalLabelPosition=bottom;labelBackgroundColor=#ffffff;verticalAlign=top;align=center;perimeter=ellipsePerimeter;outlineConnect=0;aspect=fixed;outline=throwing;symbol=message;" vertex="1" parent="cFxlyyZ_PT-G9cdDTt3e-8">
          <mxGeometry x="82" y="127.5" width="50" height="50" as="geometry" />
        </mxCell>
        <mxCell id="cFxlyyZ_PT-G9cdDTt3e-25" value="" style="dashed=1;dashPattern=8 4;endArrow=blockThin;endFill=1;startArrow=oval;startFill=0;endSize=6;startSize=4;html=1;rounded=0;exitX=0.5;exitY=1;exitDx=0;exitDy=0;exitPerimeter=0;entryX=0.5;entryY=0;entryDx=0;entryDy=0;entryPerimeter=0;" edge="1" parent="cFxlyyZ_PT-G9cdDTt3e-1" source="cFxlyyZ_PT-G9cdDTt3e-14" target="cFxlyyZ_PT-G9cdDTt3e-6">
          <mxGeometry width="160" relative="1" as="geometry">
            <mxPoint x="-820" y="780" as="sourcePoint" />
            <mxPoint x="-660" y="780" as="targetPoint" />
          </mxGeometry>
        </mxCell>
        <mxCell id="cFxlyyZ_PT-G9cdDTt3e-26" value="" style="dashed=1;dashPattern=8 4;endArrow=blockThin;endFill=1;startArrow=oval;startFill=0;endSize=6;startSize=4;html=1;rounded=0;exitX=0.5;exitY=1;exitDx=0;exitDy=0;exitPerimeter=0;entryX=0.5;entryY=0;entryDx=0;entryDy=0;" edge="1" parent="cFxlyyZ_PT-G9cdDTt3e-1" source="cFxlyyZ_PT-G9cdDTt3e-20" target="cFxlyyZ_PT-G9cdDTt3e-7">
          <mxGeometry width="160" relative="1" as="geometry">
            <mxPoint x="-560" y="810" as="sourcePoint" />
            <mxPoint x="-530" y="940" as="targetPoint" />
          </mxGeometry>
        </mxCell>
      </root>
    </mxGraphModel>
  </diagram>
</mxfile>
